<?xml version="1.0" encoding="utf-8"?>
<svg
    version="1.1"
    id="Layer_1"
    xmlns="http://www.w3.org/2000/svg"
    xmlns:xlink="http://www.w3.org/1999/xlink"
    x="0px"
    y="0px"
    viewBox="0 0 68 80"
    style="enable-background:new 0 0 68 80;"
    xml:space="preserve"
>
    <g>
        <path 
            d="M34.304 76.608l2.434-15.435.157-.855a3.171 3.171 0 0 1 3.132-2.675h1.933c3.22 0 6.18-.344 8.798-1.022 2.792-.724 5.274-1.85 7.379-3.348 2.23-1.587 4.105-3.638 5.57-6.096 1.547-2.592 2.682-5.715 3.376-9.277.613-3.146.728-5.963.343-8.373-.408-2.545-1.39-4.718-2.915-6.458-.925-1.053-2.11-1.967-3.52-2.714l-.032-.018-.001-.04c.492-3.14.474-5.76-.056-8.015-.532-2.26-1.61-4.294-3.296-6.216C54.11 2.083 47.752.063 38.71.063H13.877a3.488 3.488 0 0 0-3.448 2.946L.089 68.58a2.066 2.066 0 0 0 2.044 2.391h15.405l-.013.074-1.058 6.71a1.8 1.8 0 0 0 .41 1.45 1.8 1.8 0 0 0 1.37.632h12.922a3.043 3.043 0 0 0 3.008-2.57l.127-.659z" 
            fill="#ffffff"
            opacity="0.7"
        />
        <path 
            d="M25.45 20.382a3.108 3.108 0 0 1 3.07-2.624h19.467c2.306 0 4.456.151 6.422.468.562.09 1.108.194 1.64.312.53.118 1.046.25 1.545.395.25.074.495.15.736.23.966.321 1.864.698 2.69 1.136.976-6.215-.006-10.444-3.367-14.275C53.95 1.806 47.265 0 38.71 0H13.877a3.551 3.551 0 0 0-3.51 3L.028 68.57a2.132 2.132 0 0 0 2.106 2.464h15.33l3.85-24.42 4.138-26.233z" 
            fill="#ffffff"
        />
        <g transform="translate(16 19.9)">
            <path 
                d="M45.021.4c-.074.474-.157.957-.254 1.455-3.274 16.813-14.479 22.627-28.789 22.627H8.691a3.54 3.54 0 0 0-3.497 2.999L1.463 51.135l-1.058 6.71A1.865 1.865 0 0 0 2.247 60h12.922a3.11 3.11 0 0 0 3.07-2.624l.127-.657L20.8 41.283l.157-.853a3.11 3.11 0 0 1 3.07-2.624h1.933c12.519 0 22.321-5.086 25.185-19.794 1.197-6.147.578-11.277-2.587-14.883-.957-1.091-2.148-1.993-3.537-2.73" 
                fill="#c7c7c7"
            />
        </g>
        <path 
            d="M57.594 18.933a25.052 25.052 0 0 0-1.545-.396 29.826 29.826 0 0 0-1.64-.312c-1.966-.316-4.116-.467-6.422-.467H28.52a3.107 3.107 0 0 0-3.07 2.624l-4.137 26.233-.12.765a3.54 3.54 0 0 1 3.498-2.999h7.286c14.31 0 25.515-5.814 28.789-22.628.098-.497.18-.98.254-1.454a17.596 17.596 0 0 0-2.691-1.137c-.241-.08-.486-.156-.736-.229" 
            fill="#ffffff"
            opacity="0.7"
        />
    </g>
</svg>
