<?xml version="1.0" encoding="utf-8"?>
<svg xmlns="http://www.w3.org/2000/svg" xmlns:xlink="http://www.w3.org/1999/xlink" viewBox="0 0 329 80">
    <g>
        <path
            d="M34.304 76.608l2.434-15.435.157-.855a3.171 3.171 0 0 1 3.132-2.675h1.933c3.22 0 6.18-.344 8.798-1.022 2.792-.724 5.274-1.85 7.379-3.348 2.23-1.587 4.105-3.638 5.57-6.096 1.547-2.592 2.682-5.715 3.376-9.277.613-3.146.728-5.963.343-8.373-.408-2.545-1.39-4.718-2.915-6.458-.925-1.053-2.11-1.967-3.52-2.714l-.032-.018-.001-.04c.492-3.14.474-5.76-.056-8.015-.532-2.26-1.61-4.294-3.296-6.216C54.11 2.083 47.752.063 38.71.063H13.877a3.488 3.488 0 0 0-3.448 2.946L.089 68.58a2.066 2.066 0 0 0 2.044 2.391h15.405l-.013.074-1.058 6.71a1.8 1.8 0 0 0 .41 1.45 1.8 1.8 0 0 0 1.37.632h12.922a3.043 3.043 0 0 0 3.008-2.57l.127-.659z"
            fill="#1a1a1a"
        />
        <path
            d="M25.45 20.382a3.108 3.108 0 0 1 3.07-2.624h19.467c2.306 0 4.456.151 6.422.468.562.09 1.108.194 1.64.312.53.118 1.046.25 1.545.395.25.074.495.15.736.23.966.321 1.864.698 2.69 1.136.976-6.215-.006-10.444-3.367-14.275C53.95 1.806 47.265 0 38.71 0H13.877a3.551 3.551 0 0 0-3.51 3L.028 68.57a2.132 2.132 0 0 0 2.106 2.464h15.33l3.85-24.42 4.138-26.233z"
            fill="#1a1a1a"
        />
        <g transform="translate(16 19.9)">
            <path
                d="M45.021.4c-.074.474-.157.957-.254 1.455-3.274 16.813-14.479 22.627-28.789 22.627H8.691a3.54 3.54 0 0 0-3.497 2.999L1.463 51.135l-1.058 6.71A1.865 1.865 0 0 0 2.247 60h12.922a3.11 3.11 0 0 0 3.07-2.624l.127-.657L20.8 41.283l.157-.853a3.11 3.11 0 0 1 3.07-2.624h1.933c12.519 0 22.321-5.086 25.185-19.794 1.197-6.147.578-11.277-2.587-14.883-.957-1.091-2.148-1.993-3.537-2.73"
                fill="#808080"
            />
        </g>
        <path
            d="M57.594 18.933a25.052 25.052 0 0 0-1.545-.396 29.826 29.826 0 0 0-1.64-.312c-1.966-.316-4.116-.467-6.422-.467H28.52a3.107 3.107 0 0 0-3.07 2.624l-4.137 26.233-.12.765a3.54 3.54 0 0 1 3.498-2.999h7.286c14.31 0 25.515-5.814 28.789-22.628.098-.497.18-.98.254-1.454a17.596 17.596 0 0 0-2.691-1.137c-.241-.08-.486-.156-.736-.229"
            fill="#000000"
        />
    </g>
    <g>
        <path
            xmlns="http://www.w3.org/2000/svg"
            d="M126.548 34.825c-.99 6.5-5.954 6.5-10.755 6.5h-2.732l1.916-12.135a1.51 1.51 0 0 1 1.49-1.274h1.253c3.268 0 6.356 0 7.947 1.862.953 1.114 1.24 2.765.88 5.047m-2.09-16.957H106.35c-1.238 0-2.292.9-2.485 2.124l-7.322 46.43a1.51 1.51 0 0 0 1.49 1.745h8.647a2.517 2.517 0 0 0 2.485-2.124l1.976-12.527a2.517 2.517 0 0 1 2.485-2.124h5.73c11.927 0 18.81-5.771 20.609-17.212.81-5.003.033-8.935-2.31-11.687-2.575-3.025-7.14-4.625-13.197-4.625"
            fill="#1a1a1a"
        />
        <path
            d="M166.496 51.494c-.837 4.954-4.77 8.28-9.787 8.28-2.514 0-4.527-.809-5.822-2.341-1.283-1.518-1.765-3.681-1.358-6.089.78-4.911 4.776-8.344 9.717-8.344 2.46 0 4.46.817 5.78 2.363 1.328 1.557 1.85 3.734 1.47 6.131m12.084-16.876h-8.67a1.51 1.51 0 0 0-1.492 1.274l-.381 2.424-.606-.878c-1.878-2.726-6.063-3.636-10.242-3.636-9.58 0-17.762 7.258-19.355 17.44-.828 5.079.349 9.933 3.228 13.321 2.646 3.113 6.422 4.409 10.92 4.409 7.722 0 12.004-4.961 12.004-4.961l-.386 2.41a1.509 1.509 0 0 0 1.49 1.746h7.809a2.516 2.516 0 0 0 2.484-2.123l4.688-29.682a1.509 1.509 0 0 0-1.491-1.744"
            fill="#1a1a1a"
        />
        <g transform="translate(184 33.9)">
            <path
                d="M40.76.718h-8.715c-.834 0-1.613.414-2.081 1.103L17.942 19.527 12.847 2.512a2.517 2.517 0 0 0-2.41-1.794H1.87A1.51 1.51 0 0 0 .44 2.715l9.597 28.168L1.01 43.618C.303 44.618 1.017 46 2.243 46h8.706c.826 0 1.598-.406 2.068-1.083L42 3.088c.693-1.001-.023-2.37-1.241-2.37"
                fill="#1a1a1a"
            />
        </g>
        <path
            d="M255.697 34.825c-.99 6.5-5.954 6.5-10.755 6.5h-2.732l1.916-12.135a1.51 1.51 0 0 1 1.491-1.274h1.252c3.268 0 6.356 0 7.947 1.862.953 1.114 1.241 2.765.881 5.047m-2.09-16.957H235.5c-1.238 0-2.292.9-2.485 2.124l-7.322 46.43a1.51 1.51 0 0 0 1.491 1.745h9.291c.867 0 1.604-.631 1.74-1.488l2.076-13.163a2.517 2.517 0 0 1 2.485-2.124h5.73c11.927 0 18.81-5.771 20.61-17.212.81-5.003.032-8.935-2.31-11.687-2.576-3.025-7.14-4.625-13.198-4.625"
            fill="#808080"
        />
        <path
            d="M295.646 51.494c-.839 4.954-4.772 8.28-9.788 8.28-2.514 0-4.528-.809-5.822-2.341-1.283-1.518-1.765-3.681-1.358-6.089.78-4.911 4.776-8.344 9.716-8.344 2.462 0 4.462.817 5.78 2.363 1.329 1.557 1.852 3.734 1.472 6.131m12.082-16.876h-8.67c-.743 0-1.375.54-1.49 1.274l-.382 2.424-.606-.878c-1.877-2.726-6.063-3.636-10.241-3.636-9.58 0-17.762 7.258-19.356 17.44-.829 5.079.349 9.933 3.228 13.321 2.647 3.113 6.423 4.409 10.92 4.409 7.723 0 12.005-4.961 12.005-4.961l-.388 2.41a1.51 1.51 0 0 0 1.492 1.746h7.808a2.516 2.516 0 0 0 2.485-2.123l4.686-29.682a1.508 1.508 0 0 0-1.49-1.744"
            fill="#808080"
        />

        <path
            d="M317.948 19.143l-7.432 47.28a1.51 1.51 0 0 0 1.492 1.744h7.474a2.517 2.517 0 0 0 2.485-2.124l7.328-46.43a1.51 1.51 0 0 0-1.492-1.745h-8.364a1.51 1.51 0 0 0-1.49 1.275"
            fill="#808080"
        />
    </g>
</svg>