<?xml version="1.0" encoding="utf-8"?>
<svg viewBox="0 0 401 101" version="1.1" xmlns="http://www.w3.org/2000/svg">
  <defs>
    <polygon id="path-1" points="0.114509036 0.11991 15.513873 0.11991 15.513873 18 0.114509036 18"/>
  </defs>
  <g id="Artboard" stroke="none" stroke-width="1" fill="none" fill-rule="evenodd" transform="matrix(4.191471, 0, 0, 4.191471, -0.000196, -0.000126)">
    <g id="PPC_horizontal-m-logo">
      <g id="Group" transform="translate(28.000000, 5.000000)" fill="#003087" fill-rule="nonzero">
        <path d="M39.7176026,12.185352 L40.5990026,12.185352 C42.9441026,12.185352 45.1485026,10.902852 45.6294026,7.95655205 C46.0500026,5.25085205 44.5071026,3.72775205 41.9820026,3.72775205 L41.3349026,3.72775205 C41.1765026,3.72775205 41.0418026,3.84265205 41.0172026,3.99895205 L39.7176026,12.185352 Z M37.5798026,0.866352049 C37.6224026,0.598152049 37.8531026,0.400752049 38.1243026,0.400752049 L43.2243026,0.400752049 C47.4330026,0.400752049 50.3790026,3.70765205 49.7175026,7.95655205 C49.0362026,12.205452 45.0282026,15.512352 40.8396026,15.512352 L35.6448026,15.512352 C35.4474026,15.512352 35.2965026,15.335652 35.3271026,15.140652 L37.5798026,0.866352049 Z" id="Fill-1"/>
        <path d="M30.9751226,4.19272205 L30.6481226,6.25312205 L34.7014226,6.25312205 C34.8988226,6.25312205 35.0494226,6.42922205 35.0188226,6.62422205 L34.6291226,9.11392205 C34.5871226,9.38212205 34.3561226,9.58012205 34.0843226,9.58012205 L30.5965226,9.58012205 C30.3259226,9.58012205 30.0955226,9.77632205 30.0523226,10.043022 L29.7064226,12.185322 L34.0000226,12.185322 C34.1974226,12.185322 34.3480226,12.361722 34.3177226,12.556422 L33.9277226,15.046122 C33.8857226,15.314622 33.6547226,15.512322 33.3829226,15.512322 L25.6336226,15.512322 C25.4362226,15.512322 25.2853226,15.335622 25.3162226,15.140622 L27.5689226,0.866322049 C27.6109226,0.598122049 27.8422226,0.400722049 28.1134226,0.400722049 L35.8636226,0.400722049 C36.0610226,0.400722049 36.2119226,0.577122049 36.1813226,0.772122049 L35.7916226,3.26182205 C35.7493226,3.53002205 35.5183226,3.72772205 35.2468226,3.72772205 L31.5196226,3.72772205 C31.2484226,3.72772205 31.0180226,3.92482205 30.9751226,4.19272205" id="Fill-3"/>
        <path d="M53.1476126,15.512292 L50.0669126,15.512292 C49.8695126,15.512292 49.7186126,15.335592 49.7495126,15.140592 L52.0022126,0.866292049 C52.0442126,0.598092049 52.2755126,0.400692049 52.5467126,0.400692049 L55.6274126,0.400692049 C55.8248126,0.400692049 55.9757126,0.577392049 55.9448126,0.772692049 L53.6921126,15.046692 C53.6498126,15.314892 53.4188126,15.512292 53.1476126,15.512292" id="Fill-5"/>
        <path d="M17.4994526,7.17499205 L17.8804526,7.17499205 C19.1629526,7.17499205 20.6383526,6.93319205 20.9062526,5.29099205 C21.1744526,3.64819205 20.3185526,3.41209205 18.9481526,3.40699205 L18.3919526,3.40699205 C18.2239526,3.40699205 18.0811526,3.52909205 18.0550526,3.69469205 L17.4994526,7.17499205 Z M24.2422526,15.512292 L20.2054526,15.512292 C20.0335526,15.512292 19.8772526,15.413592 19.8031526,15.258792 L17.1388526,9.70009205 L17.0986526,9.70009205 L16.2364526,15.135792 C16.2022526,15.352692 16.0153526,15.512292 15.7957526,15.512292 L12.6250526,15.512292 C12.4276526,15.512292 12.2767526,15.335592 12.3073526,15.140592 L14.5741526,0.777492049 C14.6083526,0.560592049 14.7952526,0.400692049 15.0151526,0.400692049 L20.5057526,0.400692049 C23.4916526,0.400692049 25.5355526,1.82389205 25.0345526,5.05039205 C24.6937526,7.13479205 23.2510526,8.93839205 21.0466526,9.31939205 L24.5170526,15.023592 C24.6472526,15.237792 24.4930526,15.512292 24.2422526,15.512292 Z" id="Fill-7"/>
        <path d="M61.4793326,15.512292 L58.3986326,15.512292 C58.2012326,15.512292 58.0503326,15.335592 58.0812326,15.140592 L59.8860326,3.72769205 L57.0153326,3.72769205 C56.8179326,3.72769205 56.6670326,3.55159205 56.6979326,3.35629205 L57.0876326,0.866892049 C57.1296326,0.598692049 57.3606326,0.400692049 57.6324326,0.400692049 L67.2057326,0.400692049 C67.4031326,0.400692049 67.5540326,0.577092049 67.5234326,0.772092049 L67.1337326,3.26179205 C67.0914326,3.52999205 66.8604326,3.72769205 66.5889326,3.72769205 L63.8139326,3.72769205 L62.0238326,15.046992 C61.9815326,15.315192 61.7505326,15.512292 61.4793326,15.512292" id="Fill-9"/>
        <path d="M12.5078426,4.69516205 C12.4628426,4.97536205 12.1196426,5.07646205 11.9213426,4.87306205 C11.2481426,4.18336205 10.2605426,3.81886205 9.19734261,3.81886205 C6.79434261,3.81886205 4.89234261,5.66116205 4.51224261,8.00356205 C4.15164261,10.386462 5.51334261,12.108462 7.95564261,12.108462 C8.96304261,12.108462 10.0316426,11.725362 10.9193426,11.084862 C11.1641426,10.908162 11.5010426,11.119962 11.4524426,11.418162 L10.8935426,14.875962 C10.8602426,15.081762 10.7111426,15.250062 10.5113426,15.308562 C9.31464261,15.659862 8.39634261,15.913062 7.27524261,15.913062 C0.761642613,15.913062 -0.280257387,10.348662 0.0554426129,7.98346205 C0.996542613,1.35076205 6.37854261,-0.168737951 9.67764261,0.0142620494 C10.7405426,0.0733620494 11.6930426,0.214662049 12.6260426,0.565062049 C12.9272426,0.678462049 13.1069426,0.989262049 13.0556426,1.30726205 L12.5078426,4.69516205 Z" id="Fill-11"/>
      </g>
      <path d="M10.29111,22.98246 L11.02131,18.35196 L11.06841,18.09546 C11.10351,17.87226 11.21781,17.66826 11.39001,17.52096 C11.56221,17.37426 11.78151,17.29296 12.00801,17.29296 L12.58791,17.29296 C13.55421,17.29296 14.44221,17.18976 15.22731,16.98636 C16.06491,16.76916 16.80951,16.43106 17.44101,15.98196 C18.11031,15.50586 18.67251,14.89056 19.11231,14.15316 C19.57611,13.37556 19.91661,12.43866 20.12481,11.37006 C20.30871,10.42626 20.34321,9.58116 20.22771,8.85816 C20.10531,8.09466 19.81101,7.44276 19.35321,6.92076 C19.07571,6.60486 18.72051,6.33066 18.29751,6.10656 L18.28761,6.10116 L18.28731,6.08916 C18.43491,5.14686 18.42951,4.36116 18.27051,3.68466 C18.11091,3.00636 17.78751,2.39646 17.28171,1.81986 C16.23291,0.62496 14.32551,0.01896 11.61291,0.01896 L4.16301,0.01896 C3.91371,0.01896 3.67221,0.10806 3.48291,0.27006 C3.29331,0.43176 3.16761,0.65676 3.12861,0.90276 L0.02661,20.57406 C-0.00189,20.75346 0.04971,20.93616 0.16791,21.07386 C0.28611,21.21216 0.45801,21.29136 0.63981,21.29136 L5.26131,21.29136 L5.25741,21.31356 L4.94001,23.32626 C4.91541,23.48256 4.96041,23.64126 5.06331,23.76156 C5.16621,23.88186 5.31591,23.95116 5.47401,23.95116 L9.35061,23.95116 C9.56781,23.95116 9.77871,23.87346 9.94401,23.73186 C10.10931,23.59056 10.21911,23.39466 10.25301,23.17986 L10.29111,22.98246 Z" id="Fill-26" fill="#263B80" fill-rule="nonzero"/>
      <path d="M7.63521,6.11463 C7.68441,5.80293 7.88451,5.54763 8.15391,5.41863 C8.27601,5.36013 8.41281,5.32743 8.55621,5.32743 L14.39601,5.32743 C15.08781,5.32743 15.73281,5.37273 16.32261,5.46783 C16.49121,5.49483 16.65501,5.52603 16.81461,5.56143 C16.97361,5.59683 17.12841,5.63613 17.27811,5.67993 C17.35311,5.70213 17.42661,5.72493 17.49891,5.74893 C17.78871,5.84523 18.05811,5.95833 18.30621,6.08973 C18.59871,4.22523 18.30411,2.95653 17.29581,1.80723 C16.18521,0.54183 14.17941,3e-05 11.61291,3e-05 L4.16301,3e-05 C3.63831,3e-05 3.19191,0.38163 3.11031,0.89973 L0.00801,20.57133 C-0.05319,20.95953 0.24681,21.31053 0.63981,21.31053 L5.23881,21.31053 L6.39411,13.98453 L7.63521,6.11463 Z" id="Fill-28" fill="#003087" fill-rule="nonzero"/>
      <g id="Fill-30-Clipped" transform="translate(4.800000, 5.969970)">
        <mask id="mask-2" fill="white">
          <polygon points="0.114509036 0.11991 15.513873 0.11991 15.513873 18 0.114509036 18" transform="matrix(1, 0, 0, 1, 0, 0)"/>
        </mask>
        <g id="path-3"/>
        <path d="M13.5063,0.11991 C13.4841,0.26211 13.4592,0.40701 13.4301,0.55641 C12.4479,5.60031 9.0864,7.34451 4.7934,7.34451 L2.6073,7.34451 C2.0829,7.34451 1.6401,7.72611 1.5582,8.24421 L0.4389,15.34041 L0.1215,17.35341 C0.0678,17.69301 0.3303,18.00021 0.6741,18.00021 L4.5507,18.00021 C5.0094,18.00021 5.4,17.66601 5.4717,17.21301 L5.5098,17.01591 L6.24,12.38481 L6.2871,12.12891 C6.3585,11.67591 6.7494,11.34171 7.2081,11.34171 L7.788,11.34171 C11.5437,11.34171 14.4843,9.81591 15.3435,5.40351 C15.7026,3.55941 15.5169,2.02041 14.5674,0.93861 C14.2803,0.61131 13.923,0.34071 13.5063,0.11991" id="Fill-30" fill="#009CDE" fill-rule="nonzero" mask="url(#mask-2)"/>
      </g>
      <path d="M17.27811,5.68002 C17.12841,5.63622 16.97361,5.59692 16.81461,5.56122 C16.65501,5.52612 16.49121,5.49492 16.32261,5.46762 C15.73281,5.37282 15.08781,5.32752 14.39601,5.32752 L8.55621,5.32752 C8.41281,5.32752 8.27601,5.36022 8.15361,5.41872 C7.88451,5.54772 7.68441,5.80302 7.63521,6.11472 L6.39411,13.98462 L6.35841,14.21412 C6.44001,13.69602 6.88281,13.31442 7.40751,13.31442 L9.59331,13.31442 C13.88631,13.31442 17.24781,11.57022 18.23001,6.52602 C18.25941,6.37692 18.28401,6.23202 18.30621,6.08982 C18.05811,5.95842 17.78871,5.84502 17.49891,5.74872 C17.42661,5.72472 17.35311,5.70192 17.27811,5.68002" id="Fill-33" fill="#1D2473" fill-rule="nonzero"/>
    </g>
  </g>
</svg>
