<?xml version="1.0" encoding="utf-8"?>
<svg version="1.1" viewBox="0 0 401 101" xmlns="http://www.w3.org/2000/svg">
  <g transform="matrix(1, 0, 0, 1, -193.847626, -255.130005)">
    <g>
      <path d="M226.38,276.92c0.79-0.38,1.64-0.57,2.52-0.57h23.92c2.98,0,5.74,0.2,8.21,0.6c0.73,0.12,1.44,0.25,2.13,0.41 c0.69,0.15,1.37,0.33,2.03,0.52c0.33,0.1,0.65,0.2,0.97,0.3c0.32,0.11,0.62,0.23,0.93,0.35c0.48-6.54-1.34-11.1-4.5-14.59 c-4.62-5.11-12.76-7.4-23.28-7.4H210.9c-2.15,0-3.98,1.56-4.31,3.69l-12.71,80.57c-0.25,1.59,0.98,3.03,2.59,3.03h16.74l9.93-62.55 C223.43,279.38,224.64,277.75,226.38,276.92z"/>
      <path d="M264.89,281.99c-0.27-0.09-0.55-0.18-0.83-0.26c-0.57-0.17-1.16-0.32-1.77-0.45c-0.62-0.14-1.25-0.26-1.9-0.36 c-2.26-0.37-4.81-0.55-7.57-0.55H230.6c-0.59,0-1.15,0.13-1.65,0.37c-1.1,0.53-1.92,1.57-2.12,2.85l-4.01,25.5 c0.43-0.08,0.88-0.13,1.37-0.13c5.37,0,8.95,0,8.95,0c4.75,0,8.99-0.53,12.74-1.61c9.48-2.72,15.85-8.89,19.05-18.7 c0.71-2.17,1.23-4.18,1.59-6.05C266,282.39,265.45,282.18,264.89,281.99z"/>
      <path d="M273.11,286.63c-0.77-0.88-1.71-1.61-2.71-2.29c-2.48,11.98-9.86,28.83-37.55,28.83c-0.06,0-6.86-0.02-6.86-0.02 c-2.15,0-3.96,1.56-4.3,3.69c0,0-5.33,33.59-5.59,35.35c-0.21,1.4,1,2.53,2.27,2.53h13.78c1.88,0,3.48-1.37,3.77-3.22l3.34-20.82 c0.29-1.86,1.89-3.22,3.77-3.22h2.38c15.38,0,27.43-6.25,30.95-24.32c0.1-0.54,0.2-1.08,0.28-1.62 C277.36,295.44,276.38,290.35,273.11,286.63z"/>
    </g>
    <g id="PPC_horizontal-m-logo" transform="matrix(1, 0, 0, 1, 6, 7)">
      <g id="Group" transform="translate(28.000000, 5.000000)">
        <path id="Fill-1" d="M443.66,316.17h3.69c9.83,0,19.07-5.38,21.09-17.73c1.76-11.34-4.7-17.73-15.29-17.73h-2.71 c-0.66,0-1.23,0.48-1.33,1.14L443.66,316.17z M434.69,268.72c0.18-1.12,1.15-1.95,2.28-1.95h21.38 c17.64,0,29.99,13.86,27.22,31.67c-2.86,17.81-19.66,31.67-37.22,31.67h-21.78c-0.83,0-1.46-0.74-1.33-1.56L434.69,268.72z"/>
        <path id="Fill-3" d="M407.01,282.67l-1.37,8.64h16.99c0.83,0,1.46,0.74,1.33,1.56l-1.63,10.44c-0.18,1.12-1.14,1.95-2.28,1.95 h-14.62c-1.13,0-2.1,0.82-2.28,1.94l-1.45,8.98h18c0.83,0,1.46,0.74,1.33,1.56l-1.63,10.44c-0.18,1.13-1.14,1.95-2.28,1.95h-32.48 c-0.83,0-1.46-0.74-1.33-1.56l9.44-59.84c0.18-1.12,1.15-1.95,2.28-1.95h32.49c0.83,0,1.46,0.74,1.33,1.56l-1.63,10.44 c-0.18,1.12-1.15,1.95-2.28,1.95h-15.62C408.15,280.72,407.19,281.55,407.01,282.67"/>
        <path id="Fill-5" d="M499.95,330.12h-12.91c-0.83,0-1.46-0.74-1.33-1.56l9.44-59.84c0.18-1.12,1.15-1.95,2.28-1.95h12.91 c0.83,0,1.46,0.74,1.33,1.56l-9.44,59.83C502.06,329.29,501.09,330.12,499.95,330.12"/>
        <path id="Fill-7" d="M350.52,295.17h1.6c5.38,0,11.56-1.01,12.68-7.9c1.12-6.89-2.46-7.88-8.21-7.9h-2.33 c-0.7,0-1.3,0.51-1.41,1.21L350.52,295.17z M378.78,330.12h-16.92c-0.72,0-1.38-0.41-1.69-1.06l-11.17-23.3h-0.17l-3.61,22.79 c-0.14,0.91-0.93,1.58-1.85,1.58h-13.29c-0.83,0-1.46-0.74-1.33-1.56l9.5-60.21c0.14-0.91,0.93-1.58,1.85-1.58h23.02 c12.52,0,21.08,5.97,18.98,19.49c-1.43,8.74-7.48,16.3-16.72,17.9l14.55,23.91C380.48,328.97,379.84,330.12,378.78,330.12z"/>
        <path id="Fill-9" d="M534.88,330.12h-12.91c-0.83,0-1.46-0.74-1.33-1.56l7.57-47.84h-12.03c-0.83,0-1.46-0.74-1.33-1.56 l1.63-10.44c0.18-1.12,1.14-1.95,2.28-1.95h40.13c0.83,0,1.46,0.74,1.33,1.56l-1.63,10.44c-0.18,1.12-1.15,1.95-2.28,1.95h-11.63 l-7.5,47.45C536.98,329.29,536.01,330.12,534.88,330.12"/>
        <path id="Fill-11" d="M329.6,284.77c-0.19,1.17-1.63,1.6-2.46,0.75c-2.82-2.89-6.96-4.42-11.42-4.42 c-10.07,0-18.05,7.72-19.64,17.54c-1.51,9.99,4.2,17.21,14.43,17.21c4.22,0,8.7-1.61,12.42-4.29c1.03-0.74,2.44,0.15,2.23,1.4 l-2.34,14.49c-0.14,0.86-0.76,1.57-1.6,1.81c-5.02,1.47-8.87,2.53-13.57,2.53c-27.3,0-31.67-23.33-30.26-33.24 c3.94-27.8,26.51-34.17,40.34-33.41c4.46,0.25,8.45,0.84,12.36,2.31c1.26,0.48,2.02,1.78,1.8,3.11L329.6,284.77z"/>
      </g>
    </g>
  </g>
</svg>
