<?xml version="1.0" encoding="utf-8"?>
<svg version="1.1" viewBox="0 0 401 101" xmlns="http://www.w3.org/2000/svg">
  <style type="text/css">
	.st0{display:none;}
	.st1{display:inline;}
	.st2{fill:#FFFFFF;}
	.st3{opacity:0.68;fill:#FFFFFF;}
	.st4{opacity:0.7;fill:#FFFFFF;}
</style>
  <g transform="matrix(1, 0, 0, 1, -193.847626, -255.134995)">
    <g>
      <g class="st0">
        <g class="st1">
          <g>
            <path class="st2" d="M505.47,278.49h-22.25c-1.52,0-2.82,1.11-3.05,2.61l-9,57.05c-0.18,1.13,0.69,2.14,1.83,2.14h11.42 c1.06,0,1.97-0.77,2.14-1.83l2.55-16.17c0.24-1.5,1.53-2.61,3.05-2.61h7.04c14.66,0,23.11-7.09,25.32-21.15 c0.99-6.15,0.04-10.98-2.84-14.36C518.53,280.46,512.92,278.49,505.47,278.49z M508.04,299.33c-1.22,7.99-7.32,7.99-13.22,7.99 h-3.36l2.35-14.91c0.14-0.9,0.92-1.57,1.83-1.57h1.54c4.02,0,7.81,0,9.77,2.29C508.13,294.5,508.48,296.52,508.04,299.33z"/>
            <path class="st2" d="M346.78,278.49h-22.25c-1.52,0-2.82,1.11-3.05,2.61l-9,57.05c-0.18,1.13,0.69,2.14,1.83,2.14h10.62 c1.52,0,2.82-1.11,3.05-2.61l2.43-15.39c0.24-1.5,1.53-2.61,3.05-2.61h7.04c14.66,0,23.11-7.09,25.32-21.15 c0.99-6.15,0.04-10.98-2.84-14.36C359.83,280.46,354.22,278.49,346.78,278.49z M349.35,299.33c-1.22,7.99-7.32,7.99-13.22,7.99 h-3.36l2.35-14.91c0.14-0.9,0.92-1.57,1.83-1.57h1.54c4.02,0,7.81,0,9.77,2.29C349.43,294.5,349.79,296.52,349.35,299.33z"/>
            <path class="st2" d="M413.28,299.07h-10.65c-0.91,0-1.69,0.66-1.83,1.57l-0.47,2.98l-0.74-1.08c-2.31-3.35-7.45-4.47-12.58-4.47 c-11.77,0-21.83,8.92-23.78,21.43c-1.02,6.24,0.43,12.21,3.97,16.37c3.25,3.82,7.89,5.42,13.42,5.42c9.49,0,14.75-6.1,14.75-6.1 l-0.48,2.96c-0.18,1.13,0.69,2.14,1.83,2.14h9.59c1.52,0,2.82-1.11,3.05-2.61l5.76-36.47 C415.29,300.09,414.42,299.07,413.28,299.07z M398.43,319.81c-1.03,6.09-5.86,10.17-12.03,10.17c-3.09,0-5.56-0.99-7.15-2.88 c-1.58-1.87-2.17-4.52-1.67-7.48c0.96-6.03,5.87-10.25,11.94-10.25c3.03,0,5.48,1,7.1,2.9 C398.26,314.19,398.9,316.87,398.43,319.81z"/>
            <path class="st2" d="M571.98,299.07h-10.65c-0.91,0-1.69,0.66-1.83,1.57l-0.47,2.98l-0.74-1.08c-2.31-3.35-7.45-4.47-12.58-4.47 c-11.77,0-21.83,8.92-23.78,21.43c-1.02,6.24,0.43,12.21,3.97,16.37c3.25,3.82,7.89,5.42,13.42,5.42c9.49,0,14.75-6.1,14.75-6.1 l-0.48,2.96c-0.18,1.13,0.69,2.14,1.83,2.14H565c1.52,0,2.82-1.11,3.05-2.61l5.76-36.47 C573.99,300.09,573.12,299.07,571.98,299.07z M557.13,319.81c-1.03,6.09-5.86,10.17-12.03,10.17c-3.09,0-5.56-0.99-7.15-2.88 c-1.58-1.87-2.17-4.52-1.67-7.48c0.96-6.03,5.87-10.25,11.94-10.25c3.03,0,5.48,1,7.1,2.9 C556.96,314.19,557.6,316.87,557.13,319.81z"/>
            <path class="st2" d="M470.03,299.07h-10.71c-1.02,0-1.98,0.51-2.56,1.36l-14.77,21.76l-6.26-20.91 c-0.39-1.31-1.6-2.21-2.96-2.21h-10.53c-1.27,0-2.17,1.25-1.76,2.45l11.79,34.61l-11.09,15.65c-0.87,1.23,0.01,2.93,1.51,2.93 h10.7c1.01,0,1.96-0.5,2.54-1.33l35.61-51.4C472.4,300.76,471.52,299.07,470.03,299.07z"/>
            <path class="st2" d="M584.54,280.06l-9.13,58.1c-0.18,1.13,0.69,2.14,1.83,2.14h9.18c1.52,0,2.82-1.11,3.05-2.61l9-57.05 c0.18-1.13-0.69-2.14-1.83-2.14h-10.28C585.45,278.49,584.68,279.16,584.54,280.06z"/>
          </g>
        </g>
      </g>
      <g>
        <path class="st3" d="M268.83,281.48c1.2-7.64-0.01-12.83-4.14-17.54c-4.55-5.18-12.76-7.4-23.28-7.4H210.9 c-2.15,0-3.98,1.56-4.31,3.69l-12.71,80.57c-0.25,1.59,0.98,3.03,2.59,3.03h18.84l-1.3,8.25c-0.22,1.39,0.86,2.65,2.26,2.65h15.88 c1.88,0,3.48-1.37,3.77-3.22l0.16-0.81l2.99-18.97l0.19-1.05c0.29-1.86,1.89-3.22,3.77-3.22h2.38c15.38,0,27.43-6.25,30.95-24.32 c1.47-7.55,0.71-13.86-3.18-18.29C272,283.49,270.53,282.38,268.83,281.48L268.83,281.48"/>
        <path class="st4" d="M268.83,281.48c1.2-7.64-0.01-12.83-4.14-17.54c-4.55-5.18-12.76-7.4-23.28-7.4H210.9 c-2.15,0-3.98,1.56-4.31,3.69l-12.71,80.57c-0.25,1.59,0.98,3.03,2.59,3.03h18.84l4.73-30.01l-0.15,0.94 c0.33-2.12,2.15-3.69,4.3-3.69h8.95c17.58,0,31.35-7.14,35.38-27.8C268.63,282.66,268.74,282.06,268.83,281.48"/>
        <path class="st2" d="M225.12,281.58c0.2-1.28,1.02-2.32,2.12-2.85c0.5-0.24,1.06-0.37,1.65-0.37h23.92c2.83,0,5.48,0.19,7.89,0.57 c0.69,0.11,1.36,0.24,2.01,0.38s1.29,0.31,1.9,0.49c0.31,0.09,0.61,0.18,0.9,0.28c1.19,0.39,2.29,0.86,3.31,1.4 c1.2-7.64-0.01-12.83-4.14-17.54c-4.55-5.18-12.76-7.4-23.28-7.4H210.9c-2.15,0-3.98,1.56-4.31,3.69l-12.71,80.57 c-0.25,1.59,0.98,3.03,2.59,3.03h18.84l4.73-30.01L225.12,281.58z"/>
      </g>
    </g>
    <g>
      <g id="PPC_horizontal-m-logo" transform="translate(6.000000, 7.000000)">
        <g id="Group" transform="translate(28.000000, 5.000000)">
          <path id="Fill-1" class="st2" d="M443.64,316.49h3.69c9.83,0,19.07-5.38,21.09-17.73c1.76-11.34-4.7-17.73-15.29-17.73h-2.71 c-0.66,0-1.23,0.48-1.33,1.14L443.64,316.49z M434.68,269.04c0.18-1.12,1.15-1.95,2.28-1.95h21.38 c17.64,0,29.99,13.86,27.22,31.67c-2.86,17.81-19.66,31.67-37.22,31.67h-21.78c-0.83,0-1.46-0.74-1.33-1.56L434.68,269.04z"/>
          <path id="Fill-3" class="st2" d="M407,282.98l-1.37,8.64h16.99c0.83,0,1.46,0.74,1.33,1.56l-1.63,10.44 c-0.18,1.12-1.14,1.95-2.28,1.95h-14.62c-1.13,0-2.1,0.82-2.28,1.94l-1.45,8.98h18c0.83,0,1.46,0.74,1.33,1.56l-1.63,10.44 c-0.18,1.13-1.14,1.95-2.28,1.95h-32.48c-0.83,0-1.46-0.74-1.33-1.56l9.44-59.84c0.18-1.12,1.15-1.95,2.28-1.95h32.49 c0.83,0,1.46,0.74,1.33,1.56l-1.63,10.44c-0.18,1.12-1.15,1.95-2.28,1.95h-15.62C408.14,281.04,407.18,281.86,407,282.98"/>
          <path id="Fill-5" class="st2" d="M499.94,330.43h-12.91c-0.83,0-1.46-0.74-1.33-1.56l9.44-59.84c0.18-1.12,1.15-1.95,2.28-1.95 h12.91c0.83,0,1.46,0.74,1.33,1.56l-9.44,59.83C502.05,329.61,501.08,330.43,499.94,330.43"/>
          <path id="Fill-7" class="st2" d="M350.51,295.49h1.6c5.38,0,11.56-1.01,12.68-7.9c1.12-6.89-2.46-7.88-8.21-7.9h-2.33 c-0.7,0-1.3,0.51-1.41,1.21L350.51,295.49z M378.77,330.43h-16.92c-0.72,0-1.38-0.41-1.69-1.06L349,306.07h-0.17l-3.61,22.79 c-0.14,0.91-0.93,1.58-1.85,1.58h-13.29c-0.83,0-1.46-0.74-1.33-1.56l9.5-60.21c0.14-0.91,0.93-1.58,1.85-1.58h23.02 c12.52,0,21.08,5.97,18.98,19.49c-1.43,8.74-7.48,16.3-16.72,17.9l14.55,23.91C380.47,329.28,379.82,330.43,378.77,330.43z"/>
          <path id="Fill-9" class="st2" d="M534.87,330.43h-12.91c-0.83,0-1.46-0.74-1.33-1.56l7.57-47.84h-12.03 c-0.83,0-1.46-0.74-1.33-1.56l1.63-10.44c0.18-1.12,1.14-1.95,2.28-1.95h40.13c0.83,0,1.46,0.74,1.33,1.56l-1.63,10.44 c-0.18,1.12-1.15,1.95-2.28,1.95h-11.63l-7.5,47.45C536.97,329.61,536,330.43,534.87,330.43"/>
          <path id="Fill-11" class="st2" d="M329.58,285.09c-0.19,1.17-1.63,1.6-2.46,0.75c-2.82-2.89-6.96-4.42-11.42-4.42 c-10.07,0-18.05,7.72-19.64,17.54c-1.51,9.99,4.2,17.21,14.43,17.21c4.22,0,8.7-1.61,12.42-4.29c1.03-0.74,2.44,0.15,2.23,1.4 l-2.34,14.49c-0.14,0.86-0.76,1.57-1.6,1.81c-5.02,1.47-8.87,2.53-13.57,2.53c-27.3,0-31.67-23.33-30.26-33.24 c3.94-27.8,26.51-34.17,40.34-33.41c4.46,0.25,8.45,0.84,12.36,2.31c1.26,0.48,2.02,1.78,1.8,3.11L329.58,285.09z"/>
        </g>
      </g>
    </g>
  </g>
</svg>
