<?xml version="1.0" encoding="utf-8"?>
<svg version="1.1" viewBox="0 0 401 101" xmlns="http://www.w3.org/2000/svg">
  <style type="text/css">
	.st0{fill:#808080;}
	.st1{fill:#1A1A1A;}
</style>
  <g transform="matrix(1, 0, 0, 1, -193.847626, -255.134995)">
    <g>
      <path class="st0" d="M268.83,281.48c1.2-7.64-0.01-12.83-4.14-17.54c-4.55-5.18-12.76-7.4-23.28-7.4H210.9 c-2.15,0-3.98,1.56-4.31,3.69l-12.71,80.57c-0.25,1.59,0.98,3.03,2.59,3.03h18.84l-1.3,8.25c-0.22,1.39,0.86,2.65,2.26,2.65h15.88 c1.88,0,3.48-1.37,3.77-3.22l0.16-0.81l2.99-18.97l0.19-1.05c0.29-1.86,1.89-3.22,3.77-3.22h2.38c15.38,0,27.43-6.25,30.95-24.32 c1.47-7.55,0.71-13.86-3.18-18.29C272,283.49,270.53,282.38,268.83,281.48L268.83,281.48"/>
      <path d="M268.83,281.48c1.2-7.64-0.01-12.83-4.14-17.54c-4.55-5.18-12.76-7.4-23.28-7.4H210.9c-2.15,0-3.98,1.56-4.31,3.69 l-12.71,80.57c-0.25,1.59,0.98,3.03,2.59,3.03h18.84l4.73-30.01l-0.15,0.94c0.33-2.12,2.15-3.69,4.3-3.69h8.95 c17.58,0,31.35-7.14,35.38-27.8C268.63,282.66,268.74,282.06,268.83,281.48"/>
      <path class="st1" d="M225.12,281.58c0.2-1.28,1.02-2.32,2.12-2.85c0.5-0.24,1.06-0.37,1.65-0.37h23.92c2.83,0,5.48,0.19,7.89,0.57 c0.69,0.11,1.36,0.24,2.01,0.38s1.29,0.31,1.9,0.49c0.31,0.09,0.61,0.18,0.9,0.28c1.19,0.39,2.29,0.86,3.31,1.4 c1.2-7.64-0.01-12.83-4.14-17.54c-4.55-5.18-12.76-7.4-23.28-7.4H210.9c-2.15,0-3.98,1.56-4.31,3.69l-12.71,80.57 c-0.25,1.59,0.98,3.03,2.59,3.03h18.84l4.73-30.01L225.12,281.58z"/>
    </g>
    <g id="PPC_horizontal-m-logo" transform="matrix(1, 0, 0, 1, 6, 7)">
      <g id="Group" transform="translate(28.000000, 5.000000)">
        <path id="Fill-1" class="st1" d="M443.71,315.8h3.69c9.83,0,19.07-5.38,21.09-17.73c1.76-11.34-4.7-17.73-15.29-17.73h-2.71 c-0.66,0-1.23,0.48-1.33,1.14L443.71,315.8z M434.75,268.35c0.18-1.12,1.15-1.95,2.28-1.95h21.38c17.64,0,29.99,13.86,27.22,31.67 c-2.86,17.81-19.66,31.67-37.22,31.67h-21.78c-0.83,0-1.46-0.74-1.33-1.56L434.75,268.35z"/>
        <path id="Fill-3" class="st1" d="M407.06,282.29l-1.37,8.64h16.99c0.83,0,1.46,0.74,1.33,1.56l-1.63,10.44 c-0.18,1.12-1.14,1.95-2.28,1.95h-14.62c-1.13,0-2.1,0.82-2.28,1.94l-1.45,8.98h18c0.83,0,1.46,0.74,1.33,1.56l-1.63,10.44 c-0.18,1.13-1.14,1.95-2.28,1.95h-32.48c-0.83,0-1.46-0.74-1.33-1.56l9.44-59.84c0.18-1.12,1.15-1.95,2.28-1.95h32.49 c0.83,0,1.46,0.74,1.33,1.56l-1.63,10.44c-0.18,1.12-1.15,1.95-2.28,1.95h-15.62C408.21,280.35,407.24,281.17,407.06,282.29"/>
        <path id="Fill-5" class="st1" d="M500.01,329.74h-12.91c-0.83,0-1.46-0.74-1.33-1.56l9.44-59.84c0.18-1.12,1.15-1.95,2.28-1.95 h12.91c0.83,0,1.46,0.74,1.33,1.56l-9.44,59.83C502.11,328.92,501.14,329.74,500.01,329.74"/>
        <path id="Fill-7" class="st1" d="M350.57,294.8h1.6c5.38,0,11.56-1.01,12.68-7.9c1.12-6.89-2.46-7.88-8.21-7.9h-2.33 c-0.7,0-1.3,0.51-1.41,1.21L350.57,294.8z M378.84,329.74h-16.92c-0.72,0-1.38-0.41-1.69-1.06l-11.17-23.3h-0.17l-3.61,22.79 c-0.14,0.91-0.93,1.58-1.85,1.58h-13.29c-0.83,0-1.46-0.74-1.33-1.56l9.5-60.21c0.14-0.91,0.93-1.58,1.85-1.58h23.02 c12.52,0,21.08,5.97,18.98,19.49c-1.43,8.74-7.48,16.3-16.72,17.9l14.55,23.91C380.54,328.59,379.89,329.74,378.84,329.74z"/>
        <path id="Fill-9" class="st1" d="M534.93,329.74h-12.91c-0.83,0-1.46-0.74-1.33-1.56l7.57-47.84h-12.03 c-0.83,0-1.46-0.74-1.33-1.56l1.63-10.44c0.18-1.12,1.14-1.95,2.28-1.95h40.13c0.83,0,1.46,0.74,1.33,1.56l-1.63,10.44 c-0.18,1.12-1.15,1.95-2.28,1.95h-11.63l-7.5,47.45C537.04,328.92,536.07,329.74,534.93,329.74"/>
        <path id="Fill-11" class="st1" d="M329.65,284.4c-0.19,1.17-1.63,1.6-2.46,0.75c-2.82-2.89-6.96-4.42-11.42-4.42 c-10.07,0-18.05,7.72-19.64,17.54c-1.51,9.99,4.2,17.21,14.43,17.21c4.22,0,8.7-1.61,12.42-4.29c1.03-0.74,2.44,0.15,2.23,1.4 l-2.34,14.49c-0.14,0.86-0.76,1.57-1.6,1.81c-5.02,1.47-8.87,2.53-13.57,2.53c-27.3,0-31.67-23.33-30.26-33.24 c3.94-27.8,26.51-34.17,40.34-33.41c4.46,0.25,8.45,0.84,12.36,2.31c1.26,0.48,2.02,1.78,1.8,3.11L329.65,284.4z"/>
      </g>
    </g>
  </g>
</svg>
