
<svg xmlns="http://www.w3.org/2000/svg" viewBox="0 0 478 63"><g fill="#FFF" fill-rule="evenodd"><path d="M376.616 2.603A1.88 1.88 0 0 1 378.456 1h17.268c14.23 0 24.197 11.38 21.963 26.004C415.453 41.628 401.783 53 387.658 53h-17.57c-.318 0-.62-.142-.826-.388a1.123 1.123 0 0 1-.25-.891l7.604-49.118zm7.233 38.948h2.976c7.937 0 15.39-4.415 17.018-14.547 1.423-9.315-3.787-14.555-12.337-14.555h-2.189c-.535.001-.99.396-1.075.933l-4.393 28.169z" fill-rule="nonzero"/><path d="M354.269 14.052l-1.113 7.088h13.793c.32-.001.626.14.835.386.208.247.299.573.247.893l-1.326 8.568c-.146.921-.93 1.6-1.852 1.603h-11.872a1.88 1.88 0 0 0-1.852 1.595l-1.173 7.366h14.608c.32 0 .623.142.831.388.208.246.3.571.25.89l-1.325 8.568A1.881 1.881 0 0 1 362.468 53h-26.373c-.32 0-.624-.142-.832-.388a1.118 1.118 0 0 1-.25-.891l7.666-49.118c.145-.921.93-1.6 1.851-1.603h26.381c.32 0 .623.142.83.389.207.246.296.571.245.89l-1.326 8.568a1.873 1.873 0 0 1-1.852 1.602h-12.68a1.88 1.88 0 0 0-1.859 1.603zM428.513 53H418.09c-.319.002-.622-.14-.83-.386a1.115 1.115 0 0 1-.246-.893l7.625-49.118c.145-.921.925-1.6 1.842-1.603h10.43c.318 0 .62.142.827.388.207.246.298.571.25.891l-7.626 49.118a1.874 1.874 0 0 1-1.85 1.603z"/><path d="M332.016 53h-13.85c-.59 0-1.127-.339-1.384-.87l-9.156-19.132h-.139l-2.962 18.707A1.54 1.54 0 0 1 302.986 53H292.1a1.1 1.1 0 0 1-1.085-1.28l7.764-49.418A1.54 1.54 0 0 1 300.316 1h18.866c10.257 0 17.281 4.9 15.558 16.003-1.17 7.173-6.155 13.376-13.703 14.685l11.925 19.632a1.11 1.11 0 0 1-.946 1.68zM308.85 24.315h1.308c4.409 0 9.48-.832 10.403-6.488.923-5.655-2.024-6.464-6.733-6.48h-1.908c-.576 0-1.068.418-1.162.987l-1.908 11.98z" fill-rule="nonzero"/><path d="M457.34 53h-10.515a1.09 1.09 0 0 1-.838-.386c-.209-.246-.3-.573-.248-.893l6.164-39.295h-9.804c-.321 0-.626-.142-.835-.388a1.115 1.115 0 0 1-.251-.89l1.33-8.569A1.893 1.893 0 0 1 444.203 1h32.7c.32 0 .625.142.834.388.208.246.3.571.251.891l-1.338 8.568a1.878 1.878 0 0 1-1.858 1.602h-9.475l-6.118 38.948A1.878 1.878 0 0 1 457.34 53zM293.072 15.93c-.074.435-.391.792-.819.92a1.19 1.19 0 0 1-1.2-.312 13.092 13.092 0 0 0-9.39-3.579c-8.278 0-14.822 6.254-16.133 14.202-1.24 8.085 3.446 13.929 11.856 13.929a18.096 18.096 0 0 0 10.205-3.473c.386-.27.9-.285 1.301-.038.401.248.612.71.534 1.17l-1.927 11.733a1.84 1.84 0 0 1-1.318 1.466C282.065 53.141 278.904 54 275.042 54c-22.423 0-26.007-18.883-24.85-26.907C253.428 4.585 271.958-.574 283.335.049c3.462.098 6.887.729 10.152 1.869a2.276 2.276 0 0 1 1.48 2.515l-1.896 11.497z"/><g><path d="M158.09 1h-18.206a2.548 2.548 0 0 0-2.506 2.15l-7.364 47.122c-.059.432.07.868.351 1.199.283.33.692.523 1.124.529h9.355a1.791 1.791 0 0 0 1.75-1.51l2.087-13.291a2.536 2.536 0 0 1 2.495-2.163h5.768c11.993 0 18.937-5.848 20.748-17.447.816-5.074 0-9.062-2.326-11.853C168.787 2.62 164.194 1 158.089 1zm2.11 17.193c-.995 6.597-5.996 6.597-10.794 6.597h-2.746l1.931-12.312a1.539 1.539 0 0 1 1.5-1.292h1.198c3.286 0 6.393 0 8 1.896.983 1.124 1.271 2.804.911 5.111zM28.07 1H9.871a2.533 2.533 0 0 0-2.49 2.15L.019 50.236c-.07.441.055.891.344 1.23.288.34.71.535 1.153.533h8.691a2.52 2.52 0 0 0 2.538-2.186l1.988-12.69a2.545 2.545 0 0 1 2.502-2.16h5.758c11.972 0 18.892-5.844 20.7-17.435.814-5.071 0-9.055-2.323-11.844C38.736 2.618 34.151 1 28.07 1zm2.095 17.181c-.994 6.592-5.986 6.592-10.775 6.592h-2.754l1.928-12.303a1.536 1.536 0 0 1 1.496-1.292h1.197c3.293 0 6.393 0 7.986 1.896.993 1.123 1.28 2.8.922 5.107zM83.468 16.878h-8.762a1.535 1.535 0 0 0-1.504 1.305l-.386 2.439-.613-.903C70.313 16.94 66.077 16 61.864 16c-9.628 0-17.945 7.426-19.557 17.853a16.984 16.984 0 0 0 3.261 13.633c2.672 3.183 6.487 4.512 11.037 4.512A16.63 16.63 0 0 0 68.76 46.95l-.385 2.439c-.07.445.056.9.346 1.243.29.343.713.54 1.159.537h7.883A2.562 2.562 0 0 0 80.278 49l4.694-30.292a1.551 1.551 0 0 0-.323-1.276 1.508 1.508 0 0 0-1.181-.553zM71.264 34.145c-.683 4.977-4.936 8.646-9.893 8.537a6.744 6.744 0 0 1-5.846-2.398 6.946 6.946 0 0 1-1.376-6.236c.69-4.938 4.888-8.591 9.81-8.536a7.33 7.33 0 0 1 5.836 2.439 7.71 7.71 0 0 1 1.469 6.194zM212.47 16.878h-8.76a1.523 1.523 0 0 0-1.505 1.305l-.385 2.439-.614-.903c-1.901-2.78-6.125-3.719-10.35-3.719-9.627 0-17.931 7.427-19.544 17.853a16.9 16.9 0 0 0 3.262 13.634C177.245 50.67 181.06 52 185.597 52a16.737 16.737 0 0 0 12.131-5.085l-.397 2.44c-.066.444.061.896.35 1.238.289.342.71.54 1.154.542h7.895a2.538 2.538 0 0 0 2.503-2.171l4.742-30.256a1.564 1.564 0 0 0-.33-1.272 1.52 1.52 0 0 0-1.175-.557zm-12.215 17.268c-.677 4.975-4.925 8.646-9.88 8.537a7.34 7.34 0 0 1-5.885-2.44 7.639 7.639 0 0 1-1.372-6.231c.695-4.94 4.896-8.593 9.82-8.537a7.353 7.353 0 0 1 5.837 2.44 7.71 7.71 0 0 1 1.48 6.231z" fill-rule="nonzero"/><path d="M129.536 17h-8.738c-.837 0-1.62.416-2.093 1.114l-12.098 17.988-5.104-17.286A2.527 2.527 0 0 0 99.112 17h-8.595a1.5 1.5 0 0 0-1.234.635c-.285.402-.36.919-.201 1.387l9.623 28.616-9.073 12.94c-.33.462-.38 1.07-.128 1.579.251.51.761.834 1.323.843h8.823c.826 0 1.6-.412 2.068-1.102l29.014-42.489a1.554 1.554 0 0 0 .106-1.563 1.517 1.517 0 0 0-1.302-.846zM222.526 1.328l-7.509 47.91c-.067.442.063.892.354 1.23.292.34.716.534 1.162.532h7.545a2.53 2.53 0 0 0 2.503-2.15l7.4-47.087a1.525 1.525 0 0 0-.345-1.231 1.514 1.514 0 0 0-1.16-.532h-8.422a1.53 1.53 0 0 0-1.528 1.328z"/></g></g></svg>