
<svg xmlns="http://www.w3.org/2000/svg" xmlns:xlink="http://www.w3.org/1999/xlink" viewBox="0 0 477 64"><defs><path id="a" d="M.359.718h41.913V46H.359z"/></defs><g fill="none" fill-rule="evenodd"><path d="M384.201 41.168h2.938c7.817 0 15.165-4.275 16.768-14.096 1.402-9.02-3.74-14.096-12.158-14.096h-2.157a1.07 1.07 0 0 0-1.059.904l-4.332 27.288zm-7.126-37.73a1.839 1.839 0 0 1 1.815-1.552h17c14.03 0 23.85 11.023 21.644 25.186-2.27 14.163-15.63 25.186-29.593 25.186h-17.316a1.073 1.073 0 0 1-1.059-1.24l7.51-47.58z" fill="#003087" fill-rule="nonzero"/><path d="M355.06 14.526l-1.09 6.868h13.51c.659 0 1.16.587 1.058 1.237l-1.298 8.299a1.838 1.838 0 0 1-1.817 1.554h-11.625c-.902 0-1.67.654-1.815 1.543l-1.153 7.14h14.313c.658 0 1.16.589 1.059 1.238l-1.3 8.299a1.837 1.837 0 0 1-1.816 1.554h-25.832a1.072 1.072 0 0 1-1.058-1.24l7.51-47.58a1.837 1.837 0 0 1 1.815-1.552h25.833c.659 0 1.161.588 1.06 1.238l-1.3 8.299a1.839 1.839 0 0 1-1.815 1.553h-12.424c-.904 0-1.673.657-1.815 1.55M428.968 52.258h-10.27a1.072 1.072 0 0 1-1.057-1.24l7.509-47.58a1.837 1.837 0 0 1 1.815-1.552h10.269c.658 0 1.16.589 1.058 1.24l-7.51 47.58a1.838 1.838 0 0 1-1.814 1.552" fill="#003087"/><path d="M310.14 24.467h1.27c4.276 0 9.194-.806 10.087-6.28.894-5.476-1.96-6.263-6.527-6.28h-1.854c-.56 0-1.036.407-1.123.959l-1.852 11.6zm22.477 27.79H319.16a1.486 1.486 0 0 1-1.341-.844l-8.881-18.53h-.134l-2.874 18.12a1.487 1.487 0 0 1-1.47 1.255h-10.568a1.073 1.073 0 0 1-1.06-1.24l7.557-47.876a1.488 1.488 0 0 1 1.47-1.256h18.302c9.953 0 16.766 4.744 15.096 15.499-1.136 6.948-5.945 12.96-13.293 14.23l11.568 19.014a1.072 1.072 0 0 1-.916 1.629z" fill="#003087" fill-rule="nonzero"/><path d="M456.74 52.258h-10.269a1.072 1.072 0 0 1-1.058-1.24l6.016-38.042h-9.569a1.07 1.07 0 0 1-1.058-1.238l1.3-8.298c.14-.894.91-1.554 1.815-1.554h31.911c.658 0 1.161.588 1.06 1.238l-1.3 8.299a1.839 1.839 0 0 1-1.816 1.553h-9.25l-5.967 37.73a1.837 1.837 0 0 1-1.815 1.552M293.502 16.2c-.15.934-1.294 1.271-1.955.594-2.244-2.3-5.536-3.514-9.08-3.514-8.01 0-14.35 6.14-15.617 13.949-1.202 7.943 3.337 13.682 11.478 13.682 3.358 0 6.92-1.276 9.879-3.412.816-.589 1.939.117 1.777 1.111l-1.863 11.526a1.804 1.804 0 0 1-1.274 1.442c-3.99 1.171-7.05 2.015-10.787 2.015-21.712 0-25.185-18.548-24.066-26.432C255.13 5.052 273.07-.012 284.068.598c3.543.198 6.718.669 9.828 1.837a2.26 2.26 0 0 1 1.432 2.473l-1.826 11.294z" fill="#003087"/><path d="M159.697 18.825c-.99 6.5-5.954 6.5-10.755 6.5h-2.732l1.916-12.135a1.51 1.51 0 0 1 1.491-1.274h1.252c3.268 0 6.356 0 7.947 1.862.953 1.114 1.241 2.765.881 5.047m-2.09-16.957H139.5c-1.238 0-2.292.9-2.485 2.124l-7.322 46.43a1.51 1.51 0 0 0 1.491 1.745h9.291c.867 0 1.604-.631 1.74-1.488l2.076-13.163a2.517 2.517 0 0 1 2.485-2.124h5.73c11.927 0 18.81-5.771 20.61-17.212.81-5.003.032-8.935-2.31-11.687-2.576-3.025-7.14-4.625-13.198-4.625" fill="#009CDE" fill-rule="nonzero"/><path d="M30.548 18.825c-.99 6.5-5.954 6.5-10.755 6.5H17.06l1.916-12.135a1.51 1.51 0 0 1 1.49-1.274h1.253c3.268 0 6.356 0 7.947 1.862.953 1.114 1.24 2.765.88 5.047m-2.09-16.957H10.35c-1.238 0-2.292.9-2.485 2.124L.543 50.422a1.51 1.51 0 0 0 1.49 1.745h8.647a2.517 2.517 0 0 0 2.485-2.124l1.976-12.527a2.517 2.517 0 0 1 2.485-2.124h5.73c11.927 0 18.81-5.771 20.609-17.212.81-5.003.033-8.935-2.31-11.687-2.575-3.025-7.14-4.625-13.197-4.625M70.496 35.494c-.837 4.954-4.77 8.28-9.787 8.28-2.514 0-4.527-.809-5.822-2.341-1.283-1.518-1.765-3.681-1.358-6.089.78-4.911 4.776-8.344 9.717-8.344 2.46 0 4.46.817 5.78 2.363 1.328 1.557 1.85 3.734 1.47 6.131M82.58 18.618h-8.67a1.51 1.51 0 0 0-1.492 1.274l-.381 2.424-.606-.878c-1.878-2.726-6.063-3.636-10.242-3.636-9.58 0-17.762 7.258-19.355 17.44-.828 5.079.349 9.933 3.228 13.321 2.646 3.113 6.422 4.409 10.92 4.409 7.722 0 12.004-4.961 12.004-4.961l-.386 2.41a1.509 1.509 0 0 0 1.49 1.746h7.809a2.516 2.516 0 0 0 2.484-2.123l4.688-29.682a1.509 1.509 0 0 0-1.491-1.744" fill="#003087" fill-rule="nonzero"/><path d="M199.645 35.494c-.838 4.954-4.77 8.28-9.787 8.28-2.514 0-4.528-.809-5.822-2.341-1.282-1.518-1.766-3.681-1.358-6.089.78-4.911 4.776-8.344 9.716-8.344 2.463 0 4.462.817 5.78 2.363 1.328 1.557 1.851 3.734 1.471 6.131m12.083-16.876h-8.67c-.743 0-1.375.54-1.49 1.274l-.383 2.424-.605-.878c-1.878-2.726-6.063-3.636-10.242-3.636-9.578 0-17.761 7.258-19.355 17.44-.828 5.079.349 9.933 3.227 13.321 2.647 3.113 6.423 4.409 10.921 4.409 7.722 0 12.005-4.961 12.005-4.961l-.387 2.41a1.51 1.51 0 0 0 1.49 1.746h7.809a2.516 2.516 0 0 0 2.484-2.123l4.688-29.682a1.508 1.508 0 0 0-1.492-1.744" fill="#009CDE" fill-rule="nonzero"/><g transform="translate(88 17.9)"><mask id="b" fill="#fff"><use xlink:href="#a"/></mask><path d="M40.76.718h-8.715c-.834 0-1.613.414-2.081 1.103L17.942 19.527 12.847 2.512a2.517 2.517 0 0 0-2.41-1.794H1.87A1.51 1.51 0 0 0 .44 2.715l9.597 28.168L1.01 43.618C.303 44.618 1.017 46 2.243 46h8.706c.826 0 1.598-.406 2.068-1.083L42 3.088c.693-1.001-.023-2.37-1.241-2.37" fill="#003087" mask="url(#b)"/></g><path d="M221.948 3.143l-7.432 47.28a1.51 1.51 0 0 0 1.492 1.744h7.474a2.517 2.517 0 0 0 2.485-2.124l7.328-46.43a1.51 1.51 0 0 0-1.492-1.745h-8.364a1.51 1.51 0 0 0-1.49 1.275" fill="#009CDE"/></g></svg>