<svg version="1.1" id="Layer_1" xmlns="http://www.w3.org/2000/svg" x="0" y="0" viewBox="0 0 477 64" xml:space="preserve" enable-background="new 0 0 477 64"><style>.st0{fill-rule:evenodd;clip-rule:evenodd}</style><path d="M384.2 41.17h2.94c7.82 0 15.17-4.28 16.77-14.1 1.4-9.02-3.74-14.1-12.16-14.1h-2.16c-.53 0-.98.38-1.06.9l-4.33 27.3zm-7.13-37.73c.14-.89.91-1.55 1.82-1.55h17c14.03 0 23.85 11.02 21.64 25.19-2.27 14.16-15.63 25.19-29.59 25.19h-17.32c-.59 0-1.07-.48-1.07-1.07 0-.06 0-.11.01-.17l7.51-47.59z"/><path class="st0" d="M355.06 14.53l-1.09 6.87h13.51c.66 0 1.16.59 1.06 1.24l-1.3 8.3a1.84 1.84 0 01-1.82 1.55H353.8c-.9 0-1.67.65-1.82 1.54l-1.15 7.14h14.31c.66 0 1.16.59 1.06 1.24l-1.3 8.3a1.84 1.84 0 01-1.82 1.55h-25.83c-.59 0-1.07-.48-1.07-1.07 0-.06 0-.11.01-.17l7.51-47.58c.14-.89.91-1.55 1.82-1.55h25.83c.66 0 1.16.59 1.06 1.24l-1.3 8.3a1.84 1.84 0 01-1.82 1.55h-12.42c-.9 0-1.67.65-1.81 1.55m73.91 37.73H418.7c-.59 0-1.07-.48-1.07-1.07 0-.06 0-.11.01-.17l7.51-47.58c.14-.89.91-1.55 1.82-1.55h10.27c.66 0 1.16.59 1.06 1.24l-7.51 47.58c-.15.89-.92 1.55-1.82 1.55"/><path d="M310.14 24.47h1.27c4.28 0 9.19-.81 10.09-6.28.89-5.48-1.96-6.26-6.53-6.28h-1.85c-.56 0-1.04.41-1.12.96l-1.86 11.6zm22.48 27.79h-13.46c-.57 0-1.09-.33-1.34-.84l-8.88-18.53h-.13L305.93 51c-.11.72-.74 1.26-1.47 1.26h-10.57c-.59 0-1.07-.48-1.07-1.07 0-.06 0-.11.01-.17l7.56-47.88c.11-.72.74-1.26 1.47-1.26h18.3c9.95 0 16.77 4.74 15.1 15.5-1.14 6.95-5.95 12.96-13.29 14.23l11.57 19.01c.31.51.15 1.17-.36 1.47-.17.11-.37.17-.56.17z"/><path class="st0" d="M456.74 52.26h-10.27c-.59 0-1.07-.48-1.07-1.07 0-.06 0-.11.01-.17l6.02-38.04h-9.57c-.59 0-1.07-.48-1.07-1.07 0-.06 0-.11.01-.17l1.3-8.3c.14-.89.91-1.55 1.82-1.55h31.91c.66 0 1.16.59 1.06 1.24l-1.3 8.3a1.84 1.84 0 01-1.82 1.55h-9.25l-5.97 37.73c-.14.89-.91 1.55-1.81 1.55M293.5 16.2c-.15.93-1.29 1.27-1.95.59-2.24-2.3-5.54-3.51-9.08-3.51-8.01 0-14.35 6.14-15.62 13.95-1.2 7.94 3.34 13.68 11.48 13.68 3.36 0 6.92-1.28 9.88-3.41.82-.59 1.94.12 1.78 1.11l-1.86 11.53c-.11.69-.61 1.25-1.27 1.44-3.99 1.17-7.05 2.01-10.79 2.01-21.71 0-25.18-18.55-24.07-26.43C255.14 5.05 273.08-.01 284.07.6c3.54.2 6.72.67 9.83 1.84 1 .38 1.6 1.41 1.43 2.47L293.5 16.2z"/><path d="M159.7 18.83c-.99 6.5-5.95 6.5-10.76 6.5h-2.73l1.92-12.14c.12-.73.75-1.27 1.49-1.27h1.25c3.27 0 6.36 0 7.95 1.86.95 1.11 1.24 2.76.88 5.05m-2.09-16.96H139.5c-1.24 0-2.29.9-2.49 2.12l-7.32 46.43c-.13.82.43 1.6 1.26 1.73.08.01.16.02.23.02h9.29c.87 0 1.6-.63 1.74-1.49l2.08-13.16a2.517 2.517 0 012.49-2.12h5.73c11.93 0 18.81-5.77 20.61-17.21.81-5 .03-8.94-2.31-11.69-2.58-3.03-7.14-4.63-13.2-4.63M30.55 18.83c-.99 6.5-5.95 6.5-10.76 6.5h-2.73l1.92-12.14c.12-.73.75-1.27 1.49-1.27h1.25c3.27 0 6.36 0 7.95 1.86.95 1.11 1.24 2.76.88 5.05M28.46 1.87H10.35c-1.24 0-2.29.9-2.48 2.12L.54 50.42c-.13.82.43 1.6 1.26 1.73.08.01.16.02.23.02h8.65c1.24 0 2.29-.9 2.48-2.12l1.98-12.53a2.514 2.514 0 012.48-2.12h5.73c11.93 0 18.81-5.77 20.61-17.21.81-5 .03-8.94-2.31-11.69-2.57-3.03-7.14-4.63-13.19-4.63M70.5 35.49c-.84 4.95-4.77 8.28-9.79 8.28-2.51 0-4.53-.81-5.82-2.34-1.28-1.52-1.76-3.68-1.36-6.09.78-4.91 4.78-8.34 9.72-8.34 2.46 0 4.46.82 5.78 2.36 1.32 1.56 1.85 3.74 1.47 6.13m12.08-16.87h-8.67c-.74 0-1.38.54-1.49 1.27l-.38 2.42-.61-.88c-1.88-2.73-6.06-3.64-10.24-3.64-9.58 0-17.76 7.26-19.35 17.44-.83 5.08.35 9.93 3.23 13.32 2.65 3.11 6.42 4.41 10.92 4.41 7.72 0 12-4.96 12-4.96l-.39 2.41a1.513 1.513 0 001.49 1.75h7.81c1.24 0 2.29-.9 2.48-2.12l4.69-29.68c.13-.82-.43-1.6-1.26-1.73-.07-.01-.15-.01-.23-.01M199.65 35.49c-.84 4.95-4.77 8.28-9.79 8.28-2.51 0-4.53-.81-5.82-2.34-1.28-1.52-1.77-3.68-1.36-6.09.78-4.91 4.78-8.34 9.72-8.34 2.46 0 4.46.82 5.78 2.36 1.32 1.56 1.84 3.74 1.47 6.13m12.08-16.87h-8.67c-.74 0-1.38.54-1.49 1.27l-.38 2.42-.6-.88c-1.88-2.73-6.06-3.64-10.24-3.64-9.58 0-17.76 7.26-19.35 17.44-.83 5.08.35 9.93 3.23 13.32 2.65 3.11 6.42 4.41 10.92 4.41 7.72 0 12.01-4.96 12.01-4.96l-.39 2.41c-.13.82.43 1.6 1.26 1.73.08.01.16.02.23.02h7.81c1.24 0 2.29-.9 2.48-2.12l4.69-29.68c.13-.82-.43-1.6-1.25-1.73-.1-.01-.18-.01-.26-.01"/><g transform="translate(88 17.9)"><defs><filter id="Adobe_OpacityMaskFilter" filterUnits="userSpaceOnUse" x=".36" y=".72" width="41.91" height="45.28"><feColorMatrix values="1 0 0 0 0 0 1 0 0 0 0 0 1 0 0 0 0 0 1 0"/></filter></defs><mask maskUnits="userSpaceOnUse" x=".36" y=".72" width="41.91" height="45.28" id="b_1_"><g filter="url(#Adobe_OpacityMaskFilter)"><path id="a_1_" d="M.36.72h41.91V46H.36V.72z" fill-rule="evenodd" clip-rule="evenodd" fill="#fff"/></g></mask><path d="M40.76.72h-8.72c-.83 0-1.61.41-2.08 1.1L17.94 19.53 12.85 2.51A2.52 2.52 0 0010.44.72H1.87a1.515 1.515 0 00-1.43 2l9.6 28.17-9.03 12.73C.3 44.62 1.02 46 2.24 46h8.71c.83 0 1.6-.41 2.07-1.08L42 3.09c.69-1-.02-2.37-1.24-2.37" mask="url(#b_1_)" fill-rule="evenodd" clip-rule="evenodd"/></g><path class="st0" d="M221.95 3.14l-7.43 47.28c-.13.82.43 1.6 1.26 1.73.08.01.16.02.23.02h7.47c1.24 0 2.29-.9 2.49-2.12l7.33-46.43c.13-.82-.43-1.6-1.26-1.73-.08-.01-.16-.02-.24-.02h-8.36c-.74 0-1.38.54-1.49 1.27"/></svg>