<svg xmlns="http://www.w3.org/2000/svg" viewBox="0 0 572.9 79.9"><path d="M473.1 19.4c.1-.9.9-1.5 1.8-1.5h17c14 0 23.8 11 21.6 25.2-2.3 14.2-15.6 25.2-29.6 25.2h-17.3c-.7 0-1.2-.6-1.1-1.2l7.6-47.7zm7.1 37.8h2.9c7.8 0 15.2-4.3 16.8-14.1 1.4-9-3.7-14.1-12.2-14.1h-2.2c-.5 0-1 .4-1.1.9l-4.2 27.3zM451.1 30.5l-1.1 6.9h13.5c.7 0 1.2.6 1.1 1.2l-1.3 8.3c-.1.9-.9 1.5-1.8 1.5h-11.6c-.9 0-1.7.6-1.8 1.5l-1.2 7.1h14.3c.7 0 1.2.6 1.1 1.2l-1.3 8.3c-.1.9-.9 1.5-1.8 1.5h-25.8c-.7 0-1.2-.6-1.1-1.2l7.5-47.6c.1-.9.9-1.5 1.8-1.5h25.8c.7 0 1.2.6 1.1 1.2l-1.3 8.3c-.1.9-.9 1.5-1.8 1.5H453c-1 .3-1.8.9-1.9 1.8zM525 68.3h-10.3c-.7 0-1.2-.6-1.1-1.2l7.5-47.6c.1-.9.9-1.5 1.8-1.5h10.3c.7 0 1.2.6 1.1 1.2l-7.5 47.6c-.1.8-.9 1.5-1.8 1.5zM428.6 68.3h-13.5c-.6 0-1.1-.3-1.3-.8L404.9 49h-.1l-2.9 18c-.1.7-.7 1.3-1.5 1.3h-10.6c-.7 0-1.2-.6-1.1-1.2l7.6-47.9c.1-.7.7-1.3 1.5-1.3h18.3c10 0 16.8 4.7 15.1 15.5-1.1 7-6 13-13.3 14.2l11.6 19c.5.7 0 1.7-.9 1.7zm-22.4-27.8h1.3c4.3 0 9.2-.8 10.1-6.3.9-5.5-2-6.3-6.5-6.3h-1.8c-.6 0-1 .4-1.1 1l-2 11.6zM552.8 68.3h-10.3c-.7 0-1.2-.6-1.1-1.2l6-38h-9.6c-.7 0-1.2-.6-1.1-1.2l1.3-8.3c.1-.9.9-1.5 1.8-1.5h31.9c.7 0 1.2.6 1.1 1.2l-1.3 8.3c-.1.9-.9 1.5-1.8 1.5h-9.3l-6 37.7c0 .8-.7 1.5-1.6 1.5zM389.5 32.2c-.1.9-1.3 1.3-2 .6-2.2-2.3-5.5-3.5-9.1-3.5-8 0-14.4 6.1-15.6 14-1.2 7.9 3.3 13.7 11.5 13.7 3.4 0 6.9-1.3 9.9-3.4.8-.6 1.9.1 1.8 1.1l-1.9 11.5c-.1.7-.6 1.3-1.3 1.4-4 1.2-7 2-10.8 2-21.7 0-25.2-18.5-24.1-26.4C351 21.1 369 16 380 16.6c3.5.2 6.7.7 9.8 1.8 1 .4 1.6 1.4 1.4 2.5l-1.7 11.3z"/><g><path d="M253.6 17.9h-18.1c-1.2 0-2.3.9-2.5 2.1l-7.3 46.4c-.1.9.6 1.7 1.5 1.7h9.3c.9 0 1.6-.6 1.7-1.5l2.1-13.2c.2-1.2 1.3-2.1 2.5-2.1h5.7c11.9 0 18.8-5.8 20.6-17.2.8-5 0-8.9-2.3-11.7-2.6-2.9-7.1-4.5-13.2-4.5zm2.1 16.9c-1 6.5-6 6.5-10.8 6.5h-2.7l1.9-12.1c.1-.7.8-1.3 1.5-1.3h1.3c3.3 0 6.4 0 8 1.9.9 1.1 1.2 2.7.8 5zM124.5 17.9h-18.1c-1.2 0-2.3.9-2.5 2.1l-7.3 46.4c-.1.9.6 1.7 1.5 1.7h8.6c1.2 0 2.3-.9 2.5-2.1l2-12.5c.2-1.2 1.3-2.1 2.5-2.1h5.7c11.9 0 18.8-5.8 20.6-17.2.8-5 0-8.9-2.3-11.7-2.6-3-7.2-4.6-13.2-4.6zm2.1 16.9c-1 6.5-5.9 6.5-10.8 6.5h-2.7l1.9-12.1c.1-.7.8-1.3 1.5-1.3h1.3c3.3 0 6.4 0 7.9 1.9.9 1.1 1.2 2.7.9 5zM178.6 34.6h-8.7c-.7 0-1.4.5-1.5 1.3l-.4 2.4-.6-.9c-1.9-2.7-6.1-3.6-10.2-3.6-9.6 0-17.8 7.3-19.4 17.4-.8 5.1.4 9.9 3.2 13.3 2.6 3.1 6.4 4.4 10.9 4.4 7.7 0 12-5 12-5l-.4 2.4c-.1.9.6 1.8 1.5 1.8h7.8c1.2 0 2.3-.9 2.5-2.1l4.7-29.7c.2-.9-.5-1.7-1.4-1.7zm-12.1 16.9c-.8 5-4.8 8.3-9.8 8.3-2.5 0-4.5-.8-5.8-2.3-1.3-1.5-1.8-3.7-1.4-6.1.8-4.9 4.8-8.3 9.7-8.3 2.5 0 4.5.8 5.8 2.4 1.4 1.4 1.9 3.6 1.5 6zM307.7 34.6H299c-.7 0-1.4.5-1.5 1.3l-.4 2.4-.6-.9c-1.9-2.7-6.1-3.6-10.2-3.6-9.6 0-17.8 7.3-19.4 17.4-.8 5.1.4 9.9 3.2 13.3 2.6 3.1 6.4 4.4 10.9 4.4 7.7 0 12-5 12-5l-.4 2.4c-.1.9.6 1.8 1.5 1.8h7.8c1.2 0 2.3-.9 2.5-2.1l4.7-29.7c.3-.9-.4-1.7-1.4-1.7zm-12 16.9c-.8 5-4.8 8.3-9.8 8.3-2.5 0-4.5-.8-5.8-2.3-1.3-1.5-1.8-3.7-1.4-6.1.8-4.9 4.8-8.3 9.7-8.3 2.5 0 4.5.8 5.8 2.4 1.3 1.4 1.8 3.6 1.5 6zM224.8 34.6h-8.7c-.8 0-1.6.4-2.1 1.1l-12 17.7-5.1-17c-.3-1.1-1.3-1.8-2.4-1.8h-8.6c-1 0-1.8 1-1.4 2l9.6 28.2-9 12.7c-.7 1 0 2.4 1.2 2.4h8.7c.8 0 1.6-.4 2.1-1.1L226 37c.7-1 0-2.4-1.2-2.4zM318 19.1l-7.4 47.3c-.1.9.6 1.7 1.5 1.7h7.5c1.2 0 2.3-.9 2.5-2.1l7.3-46.4c.1-.9-.6-1.7-1.5-1.7h-8.4c-.8 0-1.4.5-1.5 1.2z"/></g><g><path d="M26.5 16.6c.6-.3 1.3-.5 2.1-.5H48c2.4 0 4.7.2 6.7.5.6.1 1.2.2 1.7.3.6.1 1.1.3 1.6.4.3.1.5.2.8.3s.5.2.8.3c.4-5.3-1.1-9-3.6-11.9-3.8-4.1-10.4-6-19-6H13.9c-1.8 0-3.2 1.3-3.5 3L0 68.6C-.2 69.9.8 71 2.1 71h13.6l8.1-50.9c.3-1.5 1.3-2.8 2.7-3.5z"/><path d="M57.8 20.7c-.2-.1-.4-.1-.7-.2-.5-.1-.9-.3-1.4-.4-.5-.1-1-.2-1.6-.3-1.8-.3-3.9-.5-6.2-.5h-18c-.5 0-.9.1-1.3.3-.9.5-1.6 1.4-1.7 2.4l-3.3 20.8c.4-.1.7-.1 1.1-.1H32c3.9 0 7.3-.4 10.4-1.3 7.7-2.2 12.9-7.2 15.5-15.2.6-1.8 1-3.4 1.3-4.9-.5-.3-.9-.4-1.4-.6z"/><path d="M64.5 24.5c-.6-.7-1.4-1.3-2.2-1.9-2 9.8-8 23.5-30.6 23.5h-5.6c-1.8 0-3.2 1.3-3.5 3 0 0-4.3 27.3-4.6 28.8 0 1.1.9 2 2 2h11.2c1.5 0 2.8-1.1 3.1-2.6l2.7-17c.2-1.5 1.5-2.6 3.1-2.6H42c12.5 0 22.3-5.1 25.2-19.8.1-.4.2-.9.2-1.3.6-4.9-.2-9.1-2.9-12.1z"/></g></svg>