<svg version="1.1" id="Layer_1" xmlns="http://www.w3.org/2000/svg" x="0" y="0" viewBox="0 0 572.9 79.9" xml:space="preserve"><style>.st0{fill:#1a1a1a}.st1{fill:gray}</style><path class="st0" d="M473.08 19.44c.14-.89.91-1.55 1.82-1.55h17c14.03 0 23.85 11.02 21.64 25.19-2.27 14.16-15.63 25.19-29.59 25.19h-17.32c-.66 0-1.16-.59-1.06-1.24l7.51-47.59zm7.12 37.73h2.94c7.82 0 15.16-4.28 16.77-14.1 1.4-9.02-3.74-14.1-12.16-14.1h-2.16c-.53 0-.98.38-1.06.9l-4.33 27.3zM451.06 30.53l-1.09 6.87h13.51c.66 0 1.16.59 1.06 1.24l-1.3 8.3a1.84 1.84 0 01-1.82 1.55H449.8c-.9 0-1.67.65-1.81 1.54l-1.15 7.14h14.31c.66 0 1.16.59 1.06 1.24l-1.3 8.3a1.84 1.84 0 01-1.82 1.55h-25.83c-.66 0-1.16-.59-1.06-1.24l7.51-47.58c.14-.89.91-1.55 1.82-1.55h25.83c.66 0 1.16.59 1.06 1.24l-1.3 8.3a1.84 1.84 0 01-1.82 1.55h-12.42c-.91 0-1.68.65-1.82 1.55zM524.97 68.26H514.7c-.66 0-1.16-.59-1.06-1.24l7.51-47.58c.14-.89.91-1.55 1.82-1.55h10.27c.66 0 1.16.59 1.06 1.24l-7.51 47.58c-.15.89-.92 1.55-1.82 1.55zM428.62 68.26h-13.46c-.57 0-1.09-.33-1.34-.84l-8.88-18.53h-.13L401.93 67c-.11.72-.74 1.25-1.47 1.25h-10.57c-.66 0-1.16-.59-1.06-1.24l7.56-47.88c.11-.72.74-1.26 1.47-1.26h18.3c9.95 0 16.77 4.74 15.1 15.5-1.14 6.95-5.95 12.96-13.29 14.23l11.57 19.01c.43.73-.09 1.65-.92 1.65zm-22.48-27.79h1.27c4.28 0 9.19-.81 10.09-6.28.89-5.48-1.96-6.26-6.53-6.28h-1.85c-.56 0-1.04.41-1.12.96l-1.86 11.6zM552.74 68.26h-10.27c-.66 0-1.16-.59-1.06-1.24l6.02-38.04h-9.57c-.66 0-1.16-.59-1.06-1.24l1.3-8.3c.14-.89.91-1.55 1.82-1.55h31.91c.66 0 1.16.59 1.06 1.24l-1.3 8.3a1.84 1.84 0 01-1.82 1.55h-9.25l-5.97 37.73c-.14.89-.91 1.55-1.81 1.55zM389.5 32.2c-.15.93-1.29 1.27-1.96.59-2.24-2.3-5.54-3.51-9.08-3.51-8.01 0-14.35 6.14-15.62 13.95-1.2 7.94 3.34 13.68 11.48 13.68 3.36 0 6.92-1.28 9.88-3.41.82-.59 1.94.12 1.78 1.11l-1.86 11.53c-.11.69-.61 1.25-1.27 1.44-3.99 1.17-7.05 2.01-10.79 2.01-21.71 0-25.18-18.55-24.07-26.43 3.14-22.11 21.08-27.17 32.07-26.56 3.54.2 6.72.67 9.83 1.84 1 .38 1.6 1.41 1.43 2.47L389.5 32.2z"/><g><path class="st1" d="M253.61 17.87H235.5c-1.24 0-2.29.9-2.48 2.12l-7.32 46.43c-.14.92.56 1.74 1.49 1.74h9.29c.87 0 1.6-.63 1.74-1.49l2.08-13.16a2.517 2.517 0 012.49-2.12h5.73c11.93 0 18.81-5.77 20.61-17.21.81-5 .03-8.93-2.31-11.69-2.59-3.02-7.15-4.62-13.21-4.62zm2.09 16.96c-.99 6.5-5.95 6.5-10.75 6.5h-2.73l1.92-12.14c.12-.73.75-1.27 1.49-1.27h1.25c3.27 0 6.36 0 7.95 1.86.94 1.11 1.23 2.76.87 5.05z"/><path class="st0" d="M124.46 17.87h-18.11c-1.24 0-2.29.9-2.49 2.12l-7.32 46.43c-.14.92.56 1.74 1.49 1.74h8.65c1.24 0 2.29-.9 2.49-2.12l1.98-12.53a2.514 2.514 0 012.48-2.12h5.73c11.93 0 18.81-5.77 20.61-17.21.81-5 .03-8.93-2.31-11.69-2.58-3.02-7.14-4.62-13.2-4.62zm2.09 16.96c-.99 6.5-5.95 6.5-10.75 6.5h-2.73l1.92-12.14c.12-.73.75-1.27 1.49-1.27h1.25c3.27 0 6.36 0 7.95 1.86.94 1.11 1.23 2.76.87 5.05zM178.58 34.62h-8.67c-.74 0-1.38.54-1.49 1.27l-.38 2.42-.61-.88c-1.88-2.73-6.06-3.64-10.24-3.64-9.58 0-17.76 7.26-19.35 17.44-.83 5.08.35 9.93 3.23 13.32 2.65 3.11 6.42 4.41 10.92 4.41 7.72 0 12-4.96 12-4.96l-.39 2.41c-.15.92.56 1.75 1.49 1.75h7.81c1.24 0 2.29-.9 2.48-2.12l4.69-29.68c.15-.91-.56-1.74-1.49-1.74zM166.5 51.49c-.84 4.95-4.77 8.28-9.79 8.28-2.51 0-4.53-.81-5.82-2.34-1.28-1.52-1.77-3.68-1.36-6.09.78-4.91 4.78-8.34 9.72-8.34 2.46 0 4.46.82 5.78 2.36 1.32 1.56 1.85 3.74 1.47 6.13z"/><path class="st1" d="M307.73 34.62h-8.67c-.74 0-1.38.54-1.49 1.27l-.38 2.42-.61-.88c-1.88-2.73-6.06-3.64-10.24-3.64-9.58 0-17.76 7.26-19.35 17.44-.83 5.08.35 9.93 3.23 13.32 2.65 3.11 6.42 4.41 10.92 4.41 7.72 0 12-4.96 12-4.96l-.39 2.41c-.15.92.56 1.75 1.49 1.75h7.81c1.24 0 2.29-.9 2.48-2.12l4.69-29.68c.14-.91-.56-1.74-1.49-1.74zm-12.08 16.87c-.84 4.95-4.77 8.28-9.79 8.28-2.52 0-4.53-.81-5.82-2.34-1.28-1.52-1.77-3.68-1.36-6.09.78-4.91 4.78-8.34 9.72-8.34 2.46 0 4.46.82 5.78 2.36 1.32 1.56 1.85 3.74 1.47 6.13z"/><path class="st0" d="M224.76 34.62h-8.72c-.83 0-1.61.41-2.08 1.1l-12.02 17.71-5.09-17.01a2.52 2.52 0 00-2.41-1.79h-8.57c-1.03 0-1.76 1.02-1.43 2l9.6 28.17-9.03 12.74c-.71 1 .01 2.38 1.23 2.38h8.71c.83 0 1.6-.4 2.07-1.08L226 36.99c.69-1-.02-2.37-1.24-2.37z"/><path class="st1" d="M317.95 19.14l-7.43 47.28c-.14.92.56 1.74 1.49 1.74h7.47c1.24 0 2.29-.9 2.48-2.12l7.33-46.43c.14-.92-.56-1.74-1.49-1.74h-8.36c-.74 0-1.38.54-1.49 1.27z"/><g><path d="M34.3 76.61l2.43-15.43.16-.86a3.2 3.2 0 011.07-1.91c.57-.49 1.3-.76 2.06-.76h1.93c3.22 0 6.18-.34 8.8-1.02 2.79-.72 5.27-1.85 7.38-3.35 2.23-1.59 4.11-3.64 5.57-6.1 1.55-2.59 2.68-5.71 3.38-9.28.61-3.15.73-5.96.34-8.37-.41-2.55-1.39-4.72-2.91-6.46-.93-1.05-2.11-1.97-3.52-2.71l-.03-.02v-.04c.49-3.14.47-5.76-.06-8.02s-1.61-4.29-3.3-6.22c-3.5-3.98-9.85-6-18.9-6H13.88a3.5 3.5 0 00-3.45 2.95L.09 68.58c-.09.6.08 1.21.47 1.67.39.46.97.73 1.57.73h15.41l-.01.07-1.06 6.71c-.08.52.07 1.05.41 1.45.34.4.84.63 1.37.63h12.92c.72 0 1.43-.26 1.98-.73s.92-1.12 1.03-1.84l.12-.66z" fill="#253b80"/><path class="st0" d="M25.45 20.38a3.094 3.094 0 013.07-2.62h19.47c2.31 0 4.46.15 6.42.47.56.09 1.11.19 1.64.31.53.12 1.05.25 1.55.4.25.07.49.15.74.23.97.32 1.86.7 2.69 1.14.97-6.23-.02-10.46-3.38-14.29C53.95 1.81 47.26 0 38.71 0H13.88c-1.75 0-3.24 1.27-3.51 3L.03 68.57c-.2 1.29.8 2.46 2.11 2.46h15.33l3.85-24.42 4.13-26.23z"/><path class="st1" d="M61.02 20.3c-.07.47-.16.96-.25 1.45-3.27 16.81-14.48 22.63-28.79 22.63h-7.29c-1.75 0-3.22 1.27-3.5 3l-3.73 23.65-1.06 6.71a1.87 1.87 0 001.84 2.16h12.92c1.53 0 2.83-1.11 3.07-2.62l.13-.66 2.43-15.44.16-.85a3.106 3.106 0 013.07-2.62h1.93c12.52 0 22.32-5.09 25.19-19.79 1.2-6.15.58-11.28-2.59-14.88-.95-1.1-2.14-2-3.53-2.74z"/><path d="M57.59 18.93c-.5-.15-1.01-.28-1.55-.4-.53-.12-1.08-.22-1.64-.31-1.97-.32-4.12-.47-6.42-.47H28.52c-.48 0-.93.11-1.34.3-.9.43-1.56 1.28-1.73 2.32L21.31 46.6l-.12.77c.27-1.73 1.75-3 3.5-3h7.29c14.31 0 25.52-5.81 28.79-22.63.1-.5.18-.98.25-1.45-.83-.44-1.73-.82-2.69-1.14-.24-.07-.49-.14-.74-.22z"/></g></g></svg>