
<svg xmlns="http://www.w3.org/2000/svg" viewBox="0 0 574 80"><g fill="#FFF" fill-rule="evenodd"><path d="M60.35 20.325c.963-6.224 0-10.457-3.329-14.29C53.379 1.821 46.741 0 38.293 0h-24.56c-1.73 0-3.204 1.272-3.475 3.001L.03 68.658c-.105.617.067 1.25.47 1.727a2.07 2.07 0 0 0 1.611.737h15.17l-1.04 6.72c-.084.54.07 1.09.421 1.504.351.416.865.654 1.405.654h12.771c1.514 0 2.802-1.118 3.033-2.633l.13-.658 2.42-15.45.155-.852c.233-1.516 1.523-2.633 3.038-2.633h1.915c12.381 0 22.078-5.092 24.908-19.82 1.186-6.155.572-11.29-2.554-14.901a12.164 12.164 0 0 0-3.533-2.728" opacity=".68"/><path d="M60.644 20.29c.967-6.213 0-10.44-3.346-14.266C53.64 1.819 46.968 0 38.48 0H13.8a3.54 3.54 0 0 0-3.491 2.996L.03 68.54a2.11 2.11 0 0 0 .472 1.723c.404.476.997.746 1.62.737h15.243l3.827-24.406-.12.762a3.53 3.53 0 0 1 3.502-2.996h7.22c14.223 0 25.358-5.782 28.615-22.603.094-.494.177-.978.25-1.451" opacity=".7"/><path d="M25.3 20.374a3.1 3.1 0 0 1 3.053-2.623h19.342c2.137-.016 4.271.14 6.383.468.56.09 1.098.195 1.626.31.528.116 1.045.247 1.537.394.25.074.491.153.732.232.92.303 1.813.683 2.671 1.135.967-6.213 0-10.44-3.346-14.266C53.64 1.819 46.968 0 38.48 0H13.8a3.54 3.54 0 0 0-3.491 2.996L.03 68.54a2.11 2.11 0 0 0 .472 1.723c.404.476.997.746 1.62.737h15.243l3.827-24.406 4.108-26.22z"/><g><path d="M472.616 19.603a1.88 1.88 0 0 1 1.84-1.603h17.268c14.23 0 24.197 11.38 21.963 26.004C511.453 58.628 497.783 70 483.658 70h-17.57c-.318 0-.62-.142-.826-.388a1.123 1.123 0 0 1-.25-.891l7.604-49.118zm7.233 38.948h2.976c7.937 0 15.39-4.415 17.018-14.547 1.423-9.315-3.787-14.555-12.337-14.555h-2.189c-.535.001-.99.396-1.075.933l-4.393 28.169z" fill-rule="nonzero"/><path d="M450.269 31.052l-1.113 7.088h13.793c.32-.001.626.14.835.386.208.247.299.573.247.893l-1.326 8.568c-.146.921-.93 1.6-1.852 1.603h-11.872a1.88 1.88 0 0 0-1.852 1.595l-1.173 7.366h14.608c.32 0 .623.142.831.388.208.246.3.571.25.89l-1.325 8.568A1.881 1.881 0 0 1 458.468 70h-26.373c-.32 0-.624-.142-.832-.388a1.118 1.118 0 0 1-.25-.891l7.666-49.118c.145-.921.93-1.6 1.851-1.603h26.381c.32 0 .623.142.83.389.207.246.296.571.245.89l-1.326 8.568a1.873 1.873 0 0 1-1.852 1.602h-12.68a1.88 1.88 0 0 0-1.859 1.603zM524.513 70H514.09c-.319.002-.622-.14-.83-.386a1.115 1.115 0 0 1-.246-.893l7.625-49.118c.145-.921.925-1.6 1.842-1.603h10.43c.318 0 .62.142.827.388.207.246.298.571.25.891l-7.626 49.118a1.874 1.874 0 0 1-1.85 1.603z"/><path d="M428.016 70h-13.85c-.59 0-1.127-.339-1.384-.87l-9.156-19.132h-.139l-2.962 18.707A1.54 1.54 0 0 1 398.986 70H388.1a1.1 1.1 0 0 1-1.085-1.28l7.764-49.418A1.54 1.54 0 0 1 396.316 18h18.866c10.257 0 17.281 4.9 15.558 16.003-1.17 7.173-6.155 13.376-13.703 14.685l11.925 19.632a1.11 1.11 0 0 1-.946 1.68zM404.85 41.315h1.308c4.409 0 9.48-.832 10.403-6.488.923-5.655-2.024-6.464-6.733-6.48h-1.908c-.576 0-1.068.418-1.162.987l-1.908 11.98z" fill-rule="nonzero"/><path d="M553.34 70h-10.515a1.09 1.09 0 0 1-.838-.386c-.209-.246-.3-.573-.248-.893l6.164-39.295h-9.804c-.321 0-.626-.142-.835-.388a1.115 1.115 0 0 1-.251-.89l1.33-8.569A1.893 1.893 0 0 1 540.203 18h32.7c.32 0 .625.142.834.388.208.246.3.571.251.891l-1.338 8.568a1.878 1.878 0 0 1-1.858 1.602h-9.475l-6.118 38.948A1.878 1.878 0 0 1 553.34 70zM389.072 32.93c-.074.435-.391.792-.819.92a1.19 1.19 0 0 1-1.2-.312 13.092 13.092 0 0 0-9.39-3.579c-8.278 0-14.822 6.254-16.133 14.202-1.24 8.085 3.446 13.929 11.856 13.929a18.096 18.096 0 0 0 10.205-3.473c.386-.27.9-.285 1.301-.038.401.248.612.71.534 1.17l-1.927 11.733a1.84 1.84 0 0 1-1.318 1.466C378.065 70.141 374.904 71 371.042 71c-22.423 0-26.007-18.883-24.85-26.907 3.237-22.508 21.767-27.667 33.144-27.044 3.462.098 6.887.729 10.152 1.869a2.276 2.276 0 0 1 1.48 2.515l-1.896 11.497z"/></g><g><path d="M254.09 18h-18.206a2.548 2.548 0 0 0-2.506 2.15l-7.364 47.122c-.059.432.07.868.351 1.199.283.33.692.523 1.124.529h9.355a1.791 1.791 0 0 0 1.75-1.51l2.087-13.291a2.536 2.536 0 0 1 2.495-2.163h5.768c11.993 0 18.937-5.848 20.748-17.447.816-5.074 0-9.062-2.326-11.853C264.787 19.62 260.194 18 254.089 18zm2.11 17.193c-.995 6.597-5.996 6.597-10.794 6.597h-2.746l1.931-12.312a1.539 1.539 0 0 1 1.5-1.292h1.198c3.286 0 6.393 0 8 1.896.983 1.124 1.271 2.804.911 5.111zM124.07 18h-18.198a2.533 2.533 0 0 0-2.49 2.15l-7.363 47.087c-.07.441.055.891.344 1.23.288.34.71.535 1.153.533h8.691a2.52 2.52 0 0 0 2.538-2.186l1.988-12.69a2.545 2.545 0 0 1 2.502-2.16h5.758c11.972 0 18.892-5.844 20.7-17.435.814-5.071 0-9.055-2.323-11.844-2.634-3.067-7.219-4.685-13.3-4.685zm2.095 17.181c-.994 6.592-5.986 6.592-10.775 6.592h-2.754l1.928-12.303a1.536 1.536 0 0 1 1.496-1.292h1.197c3.293 0 6.393 0 7.986 1.896.993 1.123 1.28 2.8.922 5.107zM179.468 33.878h-8.762a1.535 1.535 0 0 0-1.504 1.305l-.386 2.439-.613-.903c-1.89-2.78-6.126-3.719-10.339-3.719-9.628 0-17.945 7.426-19.557 17.853a16.984 16.984 0 0 0 3.261 13.633c2.672 3.183 6.487 4.512 11.037 4.512a16.63 16.63 0 0 0 12.155-5.048l-.385 2.439c-.07.445.056.9.346 1.243.29.343.713.54 1.159.537h7.883a2.562 2.562 0 0 0 2.515-2.17l4.694-30.292a1.551 1.551 0 0 0-.323-1.276 1.508 1.508 0 0 0-1.181-.553zm-12.204 17.267c-.683 4.977-4.936 8.646-9.893 8.537a6.744 6.744 0 0 1-5.846-2.398 6.946 6.946 0 0 1-1.376-6.236c.69-4.938 4.888-8.591 9.81-8.536a7.33 7.33 0 0 1 5.836 2.439 7.71 7.71 0 0 1 1.469 6.194zM308.47 33.878h-8.76a1.523 1.523 0 0 0-1.505 1.305l-.385 2.439-.614-.903c-1.901-2.78-6.125-3.719-10.35-3.719-9.627 0-17.931 7.427-19.544 17.853a16.9 16.9 0 0 0 3.262 13.634C273.245 67.67 277.06 69 281.597 69a16.737 16.737 0 0 0 12.131-5.085l-.397 2.44c-.066.444.061.896.35 1.238.289.342.71.54 1.154.542h7.895a2.538 2.538 0 0 0 2.503-2.171l4.742-30.256a1.564 1.564 0 0 0-.33-1.272 1.52 1.52 0 0 0-1.175-.557zm-12.215 17.268c-.677 4.975-4.925 8.646-9.88 8.537a7.34 7.34 0 0 1-5.885-2.44 7.639 7.639 0 0 1-1.372-6.231c.695-4.94 4.896-8.593 9.82-8.537a7.353 7.353 0 0 1 5.837 2.44 7.71 7.71 0 0 1 1.48 6.231z" fill-rule="nonzero"/><path d="M225.536 34h-8.738c-.837 0-1.62.416-2.093 1.114l-12.098 17.988-5.104-17.286A2.527 2.527 0 0 0 195.112 34h-8.595a1.5 1.5 0 0 0-1.234.635c-.285.402-.36.919-.201 1.387l9.623 28.616-9.073 12.94c-.33.462-.38 1.07-.128 1.579.251.51.761.834 1.323.843h8.823c.826 0 1.6-.412 2.068-1.102l29.014-42.489a1.554 1.554 0 0 0 .106-1.563 1.517 1.517 0 0 0-1.302-.846zM318.526 18.328l-7.509 47.91c-.067.442.063.892.354 1.23.292.34.716.534 1.162.532h7.545a2.53 2.53 0 0 0 2.503-2.15l7.4-47.087a1.525 1.525 0 0 0-.345-1.231 1.514 1.514 0 0 0-1.16-.532h-8.422a1.53 1.53 0 0 0-1.528 1.328z"/></g></g></svg>