<svg version="1.1" id="Layer_1" xmlns="http://www.w3.org/2000/svg" x="0" y="0" viewBox="0 0 452.51 151.93" xml:space="preserve"><style>.st0{fill:gray}.st1{fill:#1a1a1a}</style><path class="st0" d="M116.03 38.6c1.85-11.82-.01-19.86-6.4-27.14C102.59 3.44 89.87 0 73.61 0H26.39c-3.32 0-6.16 2.42-6.67 5.7L.05 130.39a4.046 4.046 0 004 4.68H33.2l-2.01 12.76a3.545 3.545 0 003.5 4.1h24.57a5.92 5.92 0 005.84-4.99l.24-1.25 4.63-29.35.3-1.62a5.912 5.912 0 015.84-4.99h3.68c23.8 0 42.44-9.67 47.89-37.64 2.28-11.69 1.1-21.44-4.92-28.3-1.82-2.08-4.09-3.79-6.73-5.19"/><path d="M116.03 38.6c1.85-11.82-.01-19.86-6.4-27.14C102.59 3.44 89.87 0 73.61 0H26.39c-3.32 0-6.16 2.42-6.67 5.7L.05 130.39a4.046 4.046 0 004 4.68H33.2l7.32-46.43-.23 1.46a6.73 6.73 0 016.65-5.7h13.85c27.21 0 48.52-11.05 54.74-43.03.2-.95.36-1.87.5-2.77"/><path class="st1" d="M48.39 38.76a5.897 5.897 0 013.29-4.41c.78-.37 1.64-.58 2.55-.58h37.01c4.38 0 8.47.29 12.21.89 1.07.17 2.11.37 3.12.59a42.064 42.064 0 014.34 1.19c1.84.61 3.54 1.33 5.12 2.16 1.85-11.82-.01-19.86-6.4-27.14C102.59 3.44 89.87 0 73.61 0H26.39c-3.32 0-6.16 2.42-6.67 5.7L.05 130.39a4.046 4.046 0 004 4.68H33.2l7.32-46.43 7.87-49.88z"/><g><path class="st1" d="M318.77 78.08A2.46 2.46 0 01321.2 76h22.78c18.79 0 31.95 14.77 29 33.74-3.04 18.98-20.94 33.74-39.65 33.74h-23.2c-.88 0-1.56-.79-1.42-1.66l10.06-63.74zm9.55 50.55h3.94c10.47 0 20.32-5.73 22.46-18.89 1.88-12.08-5.01-18.89-16.29-18.89h-2.89c-.71 0-1.31.51-1.42 1.21l-5.8 36.57zM289.27 92.94l-1.46 9.2h18.1c.88 0 1.56.79 1.42 1.66l-1.74 11.12a2.46 2.46 0 01-2.43 2.08h-15.58c-1.21 0-2.24.88-2.43 2.07l-1.55 9.57h19.17c.88 0 1.56.79 1.42 1.66l-1.74 11.12a2.46 2.46 0 01-2.43 2.08h-34.61c-.88 0-1.56-.79-1.42-1.66l10.06-63.75a2.46 2.46 0 012.43-2.08h34.61c.88 0 1.56.79 1.42 1.66l-1.74 11.12a2.46 2.46 0 01-2.43 2.08h-16.65a2.44 2.44 0 00-2.42 2.07zM388.29 143.49h-13.76c-.88 0-1.56-.79-1.42-1.66l10.06-63.75A2.46 2.46 0 01385.6 76h13.76c.88 0 1.56.79 1.42 1.66l-10.06 63.75a2.445 2.445 0 01-2.43 2.08zM259.2 143.49h-18.03c-.77 0-1.47-.44-1.8-1.13l-11.9-24.82h-.18l-3.85 24.28a1.99 1.99 0 01-1.97 1.68h-14.16c-.88 0-1.56-.79-1.42-1.66l10.12-64.14c.15-.97.99-1.68 1.97-1.68h24.52c13.34 0 22.46 6.35 20.23 20.77-1.52 9.31-7.97 17.36-17.81 19.06l15.5 25.47c.59.94-.1 2.17-1.22 2.17zm-30.11-37.23h1.7c5.73 0 12.32-1.08 13.51-8.41 1.2-7.34-2.62-8.39-8.74-8.41h-2.49c-.75 0-1.39.54-1.51 1.28l-2.47 15.54zM425.5 143.49h-13.76c-.88 0-1.56-.79-1.42-1.66l8.06-50.97h-12.82c-.88 0-1.56-.79-1.42-1.66l1.74-11.12a2.46 2.46 0 012.43-2.08h42.75c.88 0 1.56.79 1.42 1.66l-1.74 11.12a2.46 2.46 0 01-2.43 2.08h-12.39l-7.99 50.55a2.453 2.453 0 01-2.43 2.08zM206.8 95.18c-.2 1.25-1.73 1.7-2.62.79-3.01-3.08-7.42-4.71-12.16-4.71-10.73 0-19.23 8.23-20.92 18.69-1.61 10.64 4.47 18.33 15.38 18.33 4.5 0 9.27-1.71 13.23-4.57 1.09-.79 2.6.16 2.38 1.49l-2.5 15.44c-.15.92-.81 1.67-1.71 1.93-5.34 1.57-9.44 2.7-14.45 2.7-29.09 0-33.74-24.85-32.24-35.41 4.2-29.62 28.24-36.41 42.97-35.59 4.75.26 9 .89 13.17 2.46 1.35.51 2.15 1.89 1.92 3.31l-2.45 15.14z"/></g><g><path class="st0" d="M294.18 8.44h-15.2c-1.04 0-1.92.76-2.09 1.78l-6.15 38.96c-.12.77.47 1.46 1.25 1.46h7.8c.73 0 1.35-.53 1.46-1.25l1.74-11.05a2.108 2.108 0 012.09-1.78h4.81c10.01 0 15.79-4.84 17.3-14.44.68-4.2.03-7.5-1.94-9.81-2.15-2.53-5.98-3.87-11.07-3.87zm1.76 14.23c-.83 5.45-5 5.45-9.03 5.45h-2.29l1.61-10.18c.1-.62.63-1.07 1.25-1.07h1.05c2.74 0 5.33 0 6.67 1.56.8.94 1.04 2.33.74 4.24z"/><path class="st1" d="M185.8 8.44h-15.2c-1.04 0-1.92.76-2.09 1.78l-6.14 38.96c-.12.77.47 1.46 1.25 1.46h7.26c1.04 0 1.92-.76 2.09-1.78l1.66-10.51a2.108 2.108 0 012.09-1.78h4.81c10.01 0 15.79-4.84 17.3-14.44.68-4.2.03-7.5-1.94-9.81-2.18-2.54-6.01-3.88-11.09-3.88zm1.75 14.23c-.83 5.45-5 5.45-9.03 5.45h-2.29l1.61-10.18c.1-.62.63-1.07 1.25-1.07h1.05c2.74 0 5.33 0 6.67 1.56.8.94 1.04 2.33.74 4.24zM231.22 22.5h-7.28c-.62 0-1.15.45-1.25 1.07l-.32 2.03-.51-.74c-1.58-2.29-5.09-3.05-8.6-3.05-8.04 0-14.91 6.09-16.24 14.64-.7 4.26.29 8.34 2.71 11.18 2.22 2.61 5.39 3.7 9.16 3.7 6.48 0 10.07-4.16 10.07-4.16l-.32 2.02c-.12.77.47 1.47 1.25 1.47h6.55c1.04 0 1.92-.76 2.09-1.78l3.93-24.91c.13-.78-.46-1.47-1.24-1.47zm-10.14 14.16c-.7 4.16-4 6.95-8.21 6.95-2.11 0-3.8-.68-4.89-1.96-1.08-1.27-1.48-3.09-1.14-5.11.66-4.12 4.01-7 8.15-7 2.07 0 3.74.69 4.85 1.98 1.12 1.3 1.56 3.13 1.24 5.14z"/><path class="st0" d="M339.61 22.5h-7.28c-.62 0-1.15.45-1.25 1.07l-.32 2.03-.51-.74c-1.58-2.29-5.09-3.05-8.6-3.05-8.04 0-14.91 6.09-16.24 14.64-.7 4.26.29 8.34 2.71 11.18 2.22 2.61 5.39 3.7 9.16 3.7 6.48 0 10.07-4.16 10.07-4.16l-.32 2.02c-.12.77.47 1.47 1.25 1.47h6.55c1.04 0 1.92-.76 2.09-1.78l3.93-24.91c.13-.78-.47-1.47-1.24-1.47zm-10.15 14.16c-.7 4.16-4 6.95-8.21 6.95-2.11 0-3.8-.68-4.89-1.96-1.08-1.27-1.48-3.09-1.14-5.11.66-4.12 4.01-7 8.15-7 2.07 0 3.74.69 4.85 1.98 1.13 1.3 1.56 3.13 1.24 5.14z"/><path class="st1" d="M269.97 22.5h-7.31c-.7 0-1.35.35-1.75.93l-10.09 14.86L246.55 24a2.121 2.121 0 00-2.02-1.51h-7.19c-.87 0-1.48.85-1.2 1.68l8.05 23.64-7.57 10.69c-.59.84.01 2 1.03 2h7.31c.69 0 1.34-.34 1.74-.91l24.32-35.1c.58-.84-.02-1.99-1.05-1.99z"/><path class="st0" d="M348.18 9.51l-6.24 39.68c-.12.77.47 1.46 1.25 1.46h6.27c1.04 0 1.92-.76 2.09-1.78L357.7 9.9c.12-.77-.47-1.46-1.25-1.46h-7.02c-.62 0-1.15.45-1.25 1.07z"/></g></svg>