<svg xmlns="http://www.w3.org/2000/svg" viewBox="0 0 452.4 151.9"><path d="M318.7 78.1c.2-1.2 1.2-2.1 2.4-2.1h22.8c18.8 0 32 14.8 29 33.7-3 19-20.9 33.7-39.6 33.7H310c-.9 0-1.6-.8-1.4-1.7l10.1-63.6zm9.5 50.5h3.9c10.5 0 20.3-5.7 22.5-18.9 1.9-12.1-5-18.9-16.3-18.9h-2.9c-.7 0-1.3.5-1.4 1.2l-5.8 36.6zM289.2 92.9l-1.5 9.2h18.1c.9 0 1.6.8 1.4 1.7l-1.7 11.1c-.2 1.2-1.2 2.1-2.4 2.1h-15.6c-1.2 0-2.2.9-2.4 2.1l-1.5 9.6h19.2c.9 0 1.6.8 1.4 1.7l-1.7 11.1c-.2 1.2-1.2 2.1-2.4 2.1h-34.6c-.9 0-1.6-.8-1.4-1.7l9.9-63.8c.2-1.2 1.2-2.1 2.4-2.1H311c.9 0 1.6.8 1.4 1.7l-1.7 11.1c-.2 1.2-1.2 2.1-2.4 2.1h-16.6c-1.3-.1-2.3.8-2.5 2zM388.2 143.5h-13.8c-.9 0-1.6-.8-1.4-1.7L383.1 78c.2-1.2 1.2-2.1 2.4-2.1h13.8c.9 0 1.6.8 1.4 1.7l-10.1 63.8c-.2 1.2-1.2 2.1-2.4 2.1zM259.1 143.5h-18c-.8 0-1.5-.4-1.8-1.1l-11.9-24.8h-.2l-3.9 24.3c-.1 1-1 1.7-2 1.7h-14.2c-.9 0-1.6-.8-1.4-1.7l10.1-64.1c.1-1 1-1.7 2-1.7h24.5c13.3 0 22.5 6.4 20.2 20.8-1.5 9.3-8 17.4-17.8 19.1l15.5 25.5c.7.8 0 2-1.1 2zM229 106.3h1.7c5.7 0 12.3-1.1 13.5-8.4 1.2-7.3-2.6-8.4-8.7-8.4H233c-.8 0-1.4.5-1.5 1.3l-2.5 15.5zM425.4 143.5h-13.8c-.9 0-1.6-.8-1.4-1.7l8.1-51h-12.8c-.9 0-1.6-.8-1.4-1.7l1.7-11.1c.2-1.2 1.2-2.1 2.4-2.1H451c.9 0 1.6.8 1.4 1.7l-1.7 11.1c-.2 1.2-1.2 2.1-2.4 2.1h-12.4l-8 50.5c-.3 1.3-1.3 2.2-2.5 2.2zM206.7 95.2c-.2 1.3-1.7 1.7-2.6.8-3-3.1-7.4-4.7-12.2-4.7-10.7 0-19.2 8.2-20.9 18.7-1.6 10.6 4.5 18.3 15.4 18.3 4.5 0 9.3-1.7 13.2-4.6 1.1-.8 2.6.2 2.4 1.5l-2.5 15.4c-.1.9-.8 1.7-1.7 1.9-5.3 1.6-9.4 2.7-14.5 2.7-29.1 0-33.7-24.9-32.2-35.4 4.2-29.6 28.2-36.4 43-35.6 4.8.3 9 .9 13.2 2.5 1.4.5 2.1 1.9 1.9 3.3l-2.5 15.2z"/><g><path d="M294.1 8.4h-15.2c-1 0-1.9.8-2.1 1.8l-6.1 39c-.1.8.5 1.5 1.3 1.5h7.8c.7 0 1.4-.5 1.5-1.3l1.7-11.1c.2-1 1-1.8 2.1-1.8h4.8c10 0 15.8-4.8 17.3-14.4.7-4.2 0-7.5-1.9-9.8-2.3-2.5-6.1-3.9-11.2-3.9zm1.7 14.3c-.8 5.4-5 5.4-9 5.4h-2.3l1.6-10.2c.1-.6.6-1.1 1.3-1.1h1c2.7 0 5.3 0 6.7 1.6.8 1 1 2.4.7 4.3zM185.7 8.4h-15.2c-1 0-1.9.8-2.1 1.8l-6.1 39c-.1.8.5 1.5 1.3 1.5h7.3c1 0 1.9-.8 2.1-1.8l1.7-10.5c.2-1 1-1.8 2.1-1.8h4.8c10 0 15.8-4.8 17.3-14.4.7-4.2 0-7.5-1.9-9.8-2.4-2.6-6.2-4-11.3-4zm1.8 14.3c-.8 5.4-5 5.4-9 5.4h-2.3l1.6-10.2c.1-.6.6-1.1 1.3-1.1h1c2.7 0 5.3 0 6.7 1.6.7 1 1 2.4.7 4.3zM231.1 22.5h-7.3c-.6 0-1.1.4-1.3 1.1l-.3 2-.5-.7c-1.6-2.3-5.1-3.1-8.6-3.1-8 0-14.9 6.1-16.2 14.6-.7 4.3.3 8.3 2.7 11.2 2.2 2.6 5.4 3.7 9.2 3.7 6.5 0 10.1-4.2 10.1-4.2l-.3 2c-.1.8.5 1.5 1.3 1.5h6.5c1 0 1.9-.8 2.1-1.8l3.9-24.9c.1-.7-.5-1.4-1.3-1.4zM221 36.7c-.7 4.2-4 7-8.2 7-2.1 0-3.8-.7-4.9-2-1.1-1.3-1.5-3.1-1.1-5.1.7-4.1 4-7 8.1-7 2.1 0 3.7.7 4.9 2 1.1 1.2 1.5 3 1.2 5.1zM339.5 22.5h-7.3c-.6 0-1.1.4-1.3 1.1l-.3 2-.5-.7c-1.6-2.3-5.1-3.1-8.6-3.1-8 0-14.9 6.1-16.2 14.6-.7 4.3.3 8.3 2.7 11.2 2.2 2.6 5.4 3.7 9.2 3.7 6.5 0 10.1-4.2 10.1-4.2l-.3 2c-.1.8.5 1.5 1.3 1.5h6.5c1 0 1.9-.8 2.1-1.8l3.9-24.9c.1-.7-.5-1.4-1.3-1.4zm-10.1 14.2c-.7 4.2-4 7-8.2 7-2.1 0-3.8-.7-4.9-2-1.1-1.3-1.5-3.1-1.1-5.1.7-4.1 4-7 8.1-7 2.1 0 3.7.7 4.9 2 1 1.2 1.5 3 1.2 5.1zM269.9 22.5h-7.3c-.7 0-1.4.4-1.8.9l-10.1 14.9-4.3-14.3c-.3-.9-1.1-1.5-2-1.5h-7.2c-.9 0-1.5.9-1.2 1.7l8 23.6-7.6 10.7c-.6.8 0 2 1 2h7.3c.7 0 1.3-.3 1.7-.9l24.3-35.1c.8-.9.2-2-.8-2zM348.1 9.5l-6.2 39.7c-.1.8.5 1.5 1.3 1.5h6.3c1 0 1.9-.8 2.1-1.8l6.2-39c.1-.8-.5-1.5-1.3-1.5h-7c-.8 0-1.3.5-1.4 1.1z"/></g><g><path d="M50.3 31.5c1.2-.6 2.5-.9 3.9-.9h37c4.6 0 8.9.3 12.7.9l3.3.6c1.1.2 2.1.5 3.1.8.5.1 1 .3 1.5.5s1 .4 1.4.5c.8-10.1-2.1-17.2-7-22.6C99.2 3.5 86.6 0 70.4 0h-44c-3.3 0-6.1 2.4-6.7 5.7L.1 130.4c-.4 2.5 1.5 4.7 4 4.7H30l15.4-96.8c.4-3 2.3-5.5 4.9-6.8z"/><path d="M109.9 39.4c-.4-.1-.9-.3-1.3-.4-.9-.3-1.8-.5-2.7-.7-1-.2-1.9-.4-2.9-.6-3.5-.6-7.4-.9-11.7-.9H56.9c-.9 0-1.8.2-2.6.6-1.7.8-3 2.4-3.3 4.4l-6.2 39.5c.7-.1 1.4-.2 2.1-.2h13.9c7.4 0 13.9-.8 19.7-2.5C95.2 74.4 105 64.9 110 49.7c1.1-3.4 1.9-6.5 2.5-9.4-.9-.3-1.7-.6-2.6-.9z"/><path d="M122.7 46.6c-1.2-1.4-2.6-2.5-4.2-3.5-3.8 18.5-15.3 44.6-58.1 44.6H49.8c-3.3 0-6.1 2.4-6.6 5.7 0 0-8.3 52-8.7 54.7-.3 2.2 1.6 3.9 3.5 3.9h21.3c2.9 0 5.4-2.1 5.8-5l5.2-32.2c.4-2.9 2.9-5 5.8-5h3.7c23.8 0 42.4-9.7 47.9-37.6.2-.8.3-1.7.4-2.5 1.1-9.5-.4-17.4-5.4-23.1z"/></g></svg>