<svg xmlns="http://www.w3.org/2000/svg" viewBox="0 0 452.51 151.93"><defs><style>.cls-3{fill:#fff}</style></defs><g id="Layer_2" data-name="Layer 2"><g id="Layer_1-2" data-name="Layer 1"><path d="M116 38.6c1.85-11.82 0-19.86-6.4-27.14-7-8-19.76-11.46-36-11.46H26.39a6.76 6.76 0 0 0-6.68 5.7L.05 130.39a4 4 0 0 0 4 4.68h29.16l-2 12.76a3.55 3.55 0 0 0 3.51 4.1h24.55a5.9 5.9 0 0 0 5.83-5l.25-1.25L70 116.34l.3-1.62a5.91 5.91 0 0 1 5.84-5h3.68c23.8 0 42.44-9.67 47.88-37.64 2.28-11.69 1.1-21.44-4.91-28.3A23.35 23.35 0 0 0 116 38.6" opacity=".68" fill="#fff"/><path d="M116 38.6c1.85-11.82 0-19.86-6.4-27.14-7-8-19.76-11.46-36-11.46H26.39a6.76 6.76 0 0 0-6.68 5.7L.05 130.39a4 4 0 0 0 4 4.68h29.16l7.32-46.43-.23 1.45a6.74 6.74 0 0 1 6.7-5.7h13.81c27.21 0 48.51-11 54.74-43q.27-1.41.48-2.76" opacity=".7" fill="#fff"/><path class="cls-3" d="M48.39 38.76a5.9 5.9 0 0 1 3.29-4.41 5.78 5.78 0 0 1 2.55-.58h37a76.31 76.31 0 0 1 12.21.89c1.07.17 2.1.37 3.11.59a40.684 40.684 0 0 1 4.34 1.19A33.5 33.5 0 0 1 116 38.6c1.85-11.82 0-19.86-6.4-27.14-7-8-19.76-11.46-36-11.46H26.39a6.76 6.76 0 0 0-6.68 5.7L.05 130.39a4 4 0 0 0 4 4.68h29.16l7.32-46.43zM318.77 78.08A2.47 2.47 0 0 1 321.2 76H344c18.79 0 31.95 14.77 29 33.75s-21 33.74-39.65 33.74h-23.2a1.44 1.44 0 0 1-1.42-1.66zm9.55 50.55h3.93c10.48 0 20.32-5.73 22.47-18.88 1.88-12.09-5-18.89-16.29-18.89h-2.89a1.44 1.44 0 0 0-1.42 1.21zM289.27 92.94l-1.46 9.2h18.1a1.43 1.43 0 0 1 1.42 1.66l-1.74 11.12a2.47 2.47 0 0 1-2.43 2.08h-15.58a2.46 2.46 0 0 0-2.43 2.07l-1.54 9.56h19.17a1.44 1.44 0 0 1 1.42 1.66l-1.74 11.12a2.46 2.46 0 0 1-2.43 2.08h-34.61a1.44 1.44 0 0 1-1.42-1.66l10.06-63.75a2.47 2.47 0 0 1 2.43-2.08h34.62a1.43 1.43 0 0 1 1.41 1.66l-1.74 11.12a2.45 2.45 0 0 1-2.43 2.08h-16.64a2.46 2.46 0 0 0-2.44 2.08zM388.29 143.49h-13.75a1.43 1.43 0 0 1-1.42-1.66l10.06-63.75a2.47 2.47 0 0 1 2.43-2.08h13.76a1.44 1.44 0 0 1 1.42 1.66l-10.06 63.75a2.46 2.46 0 0 1-2.44 2.08zM259.2 143.49h-18a2 2 0 0 1-1.8-1.13l-11.9-24.83h-.18l-3.85 24.28a2 2 0 0 1-2 1.68h-14.15a1.43 1.43 0 0 1-1.41-1.66L216 77.69a2 2 0 0 1 2-1.69h24.52c13.33 0 22.46 6.36 20.22 20.77-1.52 9.31-8 17.36-17.81 19.06l15.5 25.48a1.44 1.44 0 0 1-1.23 2.18zm-30.11-37.23h1.7c5.73 0 12.32-1.08 13.52-8.42s-2.63-8.39-8.75-8.41h-2.48a1.53 1.53 0 0 0-1.51 1.28zM425.5 143.49h-13.75a1.43 1.43 0 0 1-1.42-1.66l8.06-51h-12.82a1.44 1.44 0 0 1-1.42-1.66l1.74-11.12a2.47 2.47 0 0 1 2.43-2.05h42.76a1.44 1.44 0 0 1 1.42 1.66l-1.75 11.12a2.45 2.45 0 0 1-2.43 2.08h-12.39l-8 50.55a2.45 2.45 0 0 1-2.43 2.08zM206.8 95.18a1.53 1.53 0 0 1-2.62.8A16.85 16.85 0 0 0 192 91.27c-10.74 0-19.23 8.23-20.93 18.69-1.61 10.64 4.47 18.33 15.38 18.33a23.26 23.26 0 0 0 13.24-4.57 1.52 1.52 0 0 1 2.38 1.49l-2.5 15.44a2.41 2.41 0 0 1-1.71 1.93c-5.34 1.57-9.44 2.7-14.45 2.7-29.09 0-33.74-24.85-32.24-35.41 4.2-29.62 28.24-36.41 43-35.59a43.16 43.16 0 0 1 13.17 2.46 3 3 0 0 1 1.92 3.31zM294.18 8.44H279a2.12 2.12 0 0 0-2.09 1.78l-6.14 39a1.26 1.26 0 0 0 1.23 1.43h7.8a1.49 1.49 0 0 0 1.46-1.25l1.74-11a2.11 2.11 0 0 1 2.08-1.79h4.81c10 0 15.79-4.84 17.3-14.44.68-4.2 0-7.5-1.94-9.81-2.15-2.58-5.98-3.92-11.07-3.92zm1.76 14.23c-.83 5.46-5 5.46-9 5.46h-2.29l1.61-10.19a1.28 1.28 0 0 1 1.25-1.07h1c2.74 0 5.33 0 6.67 1.57.82.93 1.06 2.32.76 4.23zM185.8 8.44h-15.2a2.11 2.11 0 0 0-2.08 1.78l-6.15 39a1.26 1.26 0 0 0 1.25 1.46h7.26a2.1 2.1 0 0 0 2.12-1.81l1.66-10.51a2.12 2.12 0 0 1 2.09-1.79h4.81c10 0 15.78-4.84 17.29-14.44.68-4.2 0-7.5-1.94-9.81-2.2-2.54-6.03-3.88-11.11-3.88zm1.75 14.23c-.83 5.46-5 5.46-9 5.46h-2.3l1.61-10.19a1.28 1.28 0 0 1 1.25-1.07h1c2.75 0 5.34 0 6.67 1.57.83.93 1.07 2.32.77 4.23zM231.22 22.5h-7.28a1.27 1.27 0 0 0-1.25 1.07l-.32 2-.51-.74c-1.57-2.28-5.09-3.05-8.59-3.05-8 0-14.91 6.09-16.25 14.64a13.79 13.79 0 0 0 2.71 11.18c2.22 2.61 5.39 3.7 9.17 3.7a13.91 13.91 0 0 0 10.1-4.14l-.32 2a1.26 1.26 0 0 0 1.25 1.46h6.55a2.12 2.12 0 0 0 2.09-1.78l3.9-24.84a1.26 1.26 0 0 0-1.25-1.5zm-10.14 14.16a8.12 8.12 0 0 1-8.22 7 5.64 5.64 0 0 1-6-7.08 8.14 8.14 0 0 1 8.15-7 6.13 6.13 0 0 1 4.85 2 6.26 6.26 0 0 1 1.22 5.08zM339.61 22.5h-7.28a1.26 1.26 0 0 0-1.25 1.07l-.32 2-.51-.74c-1.58-2.28-5.09-3.05-8.6-3.05-8 0-14.9 6.09-16.24 14.64a13.72 13.72 0 0 0 2.71 11.18c2.22 2.61 5.39 3.7 9.16 3.7a14 14 0 0 0 10.08-4.17l-.33 2a1.27 1.27 0 0 0 1.25 1.46h6.56a2.1 2.1 0 0 0 2.08-1.78L340.86 24a1.27 1.27 0 0 0-1.25-1.5zm-10.15 14.16a8.11 8.11 0 0 1-8.21 7 6.14 6.14 0 0 1-4.89-2 6.2 6.2 0 0 1-1.14-5.11 8.15 8.15 0 0 1 8.16-7 6.15 6.15 0 0 1 4.85 2 6.26 6.26 0 0 1 1.23 5.11zM270 22.5h-7.31a2.12 2.12 0 0 0-1.75.92l-10.12 14.86L246.55 24a2.11 2.11 0 0 0-2-1.5h-7.19a1.26 1.26 0 0 0-1.2 1.67l8.05 23.64-7.59 10.69a1.26 1.26 0 0 0 1 2H245a2.1 2.1 0 0 0 1.73-.91L271 24.49a1.27 1.27 0 0 0-1-1.99zM348.18 9.51l-6.24 39.68a1.27 1.27 0 0 0 1.26 1.46h6.27a2.1 2.1 0 0 0 2.08-1.78l6.15-39a1.26 1.26 0 0 0-1.25-1.46h-7a1.27 1.27 0 0 0-1.27 1.1z"/></g></g></svg>